<?xml version='1.0' encoding='utf-8'?>
<svg xmlns="http://www.w3.org/2000/svg" width="96px" height="96px" viewBox="0 0 96 96" version="1.1"> <g id="surface1"> <path style=" stroke:none;fill-rule:nonzero;fill:rgb(0%,0%,0%);fill-opacity:1;" d="M 0 48 L 0 96 L 96 96 L 96 0 L 0 0 Z M 50.117188 10.648438 C 50.738281 11.289062 51.148438 12.429688 51.300781 13.96875 L 51.429688 15.148438 L 52.574219 15.375 C 56.773438 16.199219 60.488281 18.132812 63.507812 21.054688 C 65.664062 23.15625 67.164062 25.367188 68.042969 27.789062 C 68.886719 30.074219 69.074219 31.144531 69.074219 33.84375 C 69.074219 36.542969 68.886719 37.613281 68.042969 39.898438 C 66.804688 43.292969 63.84375 46.914062 60.5625 49.050781 C 59.792969 49.539062 59.117188 49.988281 59.082031 50.007812 C 59.023438 50.042969 59.117188 50.210938 59.289062 50.382812 C 59.570312 50.664062 59.738281 50.625 61.386719 49.894531 C 64.332031 48.601562 68.773438 47.25 70.085938 47.25 C 70.332031 47.25 70.820312 47.023438 71.175781 46.761719 C 71.570312 46.460938 72.148438 46.21875 72.695312 46.164062 L 73.574219 46.070312 L 73.050781 46.949219 C 72.636719 47.664062 72.582031 47.886719 72.75 48.113281 C 73.105469 48.523438 73.238281 48.449219 73.855469 47.4375 C 74.175781 46.914062 74.511719 46.5 74.625 46.5 C 75.207031 46.5 76.125 48.09375 76.125 49.085938 C 76.125 50.023438 75.355469 51.1875 74.398438 51.730469 C 73.914062 51.992188 72.917969 52.667969 72.148438 53.210938 C 70.5 54.429688 66.695312 56.34375 64.445312 57.09375 C 62.960938 57.601562 62.8125 57.695312 62.90625 58.070312 C 63.46875 60.335938 63.488281 68.398438 62.925781 70.460938 C 62.53125 71.960938 61.855469 73.460938 61.125 74.570312 L 60.542969 75.414062 L 61.539062 76.480469 C 63.542969 78.636719 64.367188 81.09375 63.601562 82.5 C 63.394531 82.875 62.886719 83.363281 62.417969 83.625 C 60.335938 84.789062 55.894531 83.679688 52.875 81.207031 L 52.050781 80.53125 L 46.648438 80.4375 L 41.230469 80.34375 L 40.238281 81.019531 C 38.886719 81.917969 36.789062 82.78125 35.023438 83.136719 C 33.1875 83.511719 30.207031 83.53125 29.34375 83.175781 C 28.648438 82.875 27.695312 81.695312 27.375 80.699219 C 26.851562 79.144531 28.351562 76.78125 30.804688 75.226562 C 31.445312 74.832031 32.101562 74.457031 32.269531 74.398438 C 32.53125 74.304688 32.492188 74.101562 31.949219 73.011719 C 31.125 71.324219 30.730469 69.65625 30.617188 67.40625 L 30.507812 65.511719 L 28.3125 66.113281 C 27.113281 66.449219 25.632812 66.769531 25.011719 66.84375 C 24.261719 66.9375 23.757812 67.125 23.4375 67.40625 C 22.707031 68.0625 22.21875 68.25 21.242188 68.25 C 19.539062 68.25 18.375 67.070312 18.375 65.324219 C 18.375 64.820312 18.488281 64.238281 18.636719 64.03125 C 18.863281 63.710938 18.976562 63.769531 20.4375 64.875 C 21.898438 65.980469 22.011719 66.039062 22.238281 65.71875 C 22.386719 65.511719 22.5 65.324219 22.5 65.269531 C 22.480469 65.210938 21.804688 64.648438 20.980469 64.050781 C 19.5 62.960938 19.480469 62.925781 19.914062 62.699219 C 20.136719 62.570312 20.664062 62.457031 21.054688 62.4375 C 21.617188 62.4375 22.144531 62.195312 23.304688 61.425781 C 25.03125 60.300781 27.300781 59.117188 29.53125 58.199219 C 30.898438 57.636719 31.050781 57.523438 31.292969 56.867188 C 32.550781 53.476562 33.335938 51.976562 34.78125 50.195312 L 35.625 49.164062 L 34.726562 48.523438 C 31.351562 46.070312 28.667969 42.335938 27.542969 38.4375 C 27.242188 37.386719 27.132812 36.335938 27.054688 34.3125 C 26.980469 31.835938 27.019531 31.425781 27.449219 29.738281 C 29.117188 23.269531 34.460938 17.925781 41.289062 15.917969 L 42.695312 15.507812 L 42.242188 14.476562 C 42 13.894531 41.738281 13.03125 41.679688 12.5625 C 41.34375 9.769531 43.632812 10.59375 45.75 14.007812 C 46.574219 15.394531 46.96875 15.335938 47.136719 13.875 C 47.382812 11.757812 48.28125 10.125 49.21875 10.125 C 49.445312 10.125 49.835938 10.351562 50.117188 10.648438 Z M 81.710938 34.480469 C 81.863281 34.554688 81.9375 34.835938 81.898438 35.082031 C 81.824219 35.699219 81.09375 35.792969 80.792969 35.230469 C 80.605469 34.875 80.625 34.761719 80.925781 34.554688 C 81.320312 34.273438 81.375 34.257812 81.710938 34.480469 Z M 10.386719 54.863281 C 11.0625 55.539062 10.5 56.8125 9.523438 56.8125 C 9.054688 56.8125 8.4375 56.15625 8.4375 55.648438 C 8.4375 54.730469 9.730469 54.1875 10.386719 54.863281 Z M 10.386719 54.863281 "/> <path style=" stroke:none;fill-rule:nonzero;fill:rgb(0%,0%,0%);fill-opacity:1;" d="M 55.179688 23.382812 L 49.707031 26.304688 L 50.101562 27.074219 C 50.304688 27.488281 50.511719 27.882812 50.550781 27.898438 C 50.570312 27.9375 53.101562 26.644531 56.136719 25.011719 L 61.6875 22.070312 L 61.273438 21.394531 C 61.050781 21.019531 60.824219 20.664062 60.769531 20.585938 C 60.695312 20.511719 58.179688 21.769531 55.179688 23.382812 Z M 55.179688 23.382812 "/> <path style=" stroke:none;fill-rule:nonzero;fill:rgb(0%,0%,0%);fill-opacity:1;" d="M 34.648438 22.40625 C 34.425781 22.875 34.273438 23.289062 34.332031 23.324219 C 34.445312 23.457031 44.851562 28.5 44.980469 28.5 C 45.1875 28.5 45.75 26.925781 45.617188 26.792969 C 45.523438 26.71875 43.125 25.519531 40.257812 24.132812 L 35.042969 21.582031 Z M 34.648438 22.40625 "/> <path style=" stroke:none;fill-rule:nonzero;fill:rgb(0%,0%,0%);fill-opacity:1;" d="M 40.894531 28.179688 C 39.75 28.761719 39.261719 30.394531 39.917969 31.445312 C 40.5 32.382812 41.136719 32.71875 41.960938 32.511719 C 43.761719 32.0625 44.0625 29.082031 42.375 28.21875 C 41.71875 27.882812 41.476562 27.882812 40.894531 28.179688 Z M 40.894531 28.179688 "/> <path style=" stroke:none;fill-rule:nonzero;fill:rgb(0%,0%,0%);fill-opacity:1;" d="M 53.457031 28.179688 C 52.3125 28.761719 51.824219 30.394531 52.480469 31.445312 C 53.0625 32.382812 53.699219 32.71875 54.523438 32.511719 C 56.324219 32.0625 56.625 29.082031 54.9375 28.21875 C 54.28125 27.882812 54.039062 27.882812 53.457031 28.179688 Z M 53.457031 28.179688 "/> <path style=" stroke:none;fill-rule:nonzero;fill:rgb(0%,0%,0%);fill-opacity:1;" d="M 54.9375 42.300781 C 49.875 44.382812 49.085938 44.644531 47.832031 44.757812 C 46.03125 44.90625 43.632812 44.417969 40.21875 43.21875 C 38.605469 42.65625 37.105469 42.1875 36.917969 42.1875 C 36.113281 42.1875 36.148438 43.5 36.976562 44.398438 C 38.117188 45.617188 40.914062 46.554688 44.382812 46.875 C 48.601562 47.25 53.757812 46.460938 56.679688 44.980469 C 57.75 44.4375 59.042969 43.164062 59.230469 42.488281 C 59.664062 40.894531 58.460938 40.835938 54.9375 42.300781 Z M 54.9375 42.300781 "/> </g> </svg>