<?xml version='1.0' encoding='utf-8'?>
<svg xmlns="http://www.w3.org/2000/svg" version="1.1" width="600px" height="976px" viewBox="0 0 600 976"> <g id="layer1"> <g style="fill:rgb(0,0,0); fill-opacity:1.0; stroke-linejoin: miter"> <path d="M300.61047,292.97552C299.75565,293.15875,285.8951,295.90643,269.7754,299.0204C237.71912,305.3095,226.6063,307.38556,209.93701,310.3775C203.89212,311.47662,198.70206,312.57562,198.39676,312.8199C198.1525,313.0641,198.51889,313.67468,199.31265,314.2243C200.10641,314.7127,217.38626,319.47534,237.71912,324.7265C258.05197,329.9776,279.9113,335.71722,286.26147,337.36578C297.13004,340.2967,298.35123,340.47992,305.18994,340.47992C312.3339,340.47992,312.9445,340.35773,328.39258,336.32782C337.12405,334.0075,354.2818,329.61127,366.5548,326.43622C403.80115,316.91083,412.96005,314.4074,412.96005,313.97998C412.96005,313.0031,409.05228,312.02606,391.89453,308.78992C369.05826,304.39362,321.67603,295.23468,316.18066,294.13562C311.35696,293.15875,302.86966,292.54816,300.61047,292.97552 Z"/> </g> <g style="fill:rgb(0,0,0); fill-opacity:1.0; stroke-linejoin: miter"> <path d="M249.62573,334.55707C249.80893,336.20575,250.35843,341.82318,250.84692,347.1353C251.39645,352.4475,252.25131,357.82074,252.73978,359.16406C254.3273,363.07196,259.39526,367.1629,267.8215,371.315C280.03342,377.3598,291.26834,379.92432,305.49524,379.92432C322.16446,379.92432,338.5895,375.16168,351.0457,366.67438C358.86127,361.30115,359.7161,359.2862,360.44885,344.08234C360.75415,337.7932,360.9373,332.60315,360.81522,332.48102C360.38776,332.05365,334.92593,338.52594,319.2947,343.1054C315.26477,344.26556,310.74637,345.42566,309.21988,345.73096C304.3351,346.64685,301.4653,345.97528,263.85263,335.41193C256.58652,333.33588,250.2974,331.68726,249.93103,331.68726C249.50363,331.68726,249.3815,332.72528,249.62573,334.55707 Z"/> </g> <g style="fill:rgb(0,0,0); fill-opacity:1.0; stroke-linejoin: miter"> <path d="M352.08365,370.3991C346.40515,374.36798,340.6045,377.23773,333.52155,379.55804C323.9352,382.7331,318.92834,383.649,308.24292,384.01532C300.06094,384.25958,297.2522,384.1375,291.14624,383.09943C279.05643,381.02338,270.0807,377.60406,260.2501,371.315C257.68558,369.66632,255.18216,368.323,254.6937,368.323C253.35037,368.323,252.98401,369.5442,252.25131,377.3598C250.2974,397.6927,259.21207,416.49908,276.12558,428.1004C287.78796,436.09912,304.09085,438.66364,318.92834,434.87793C342.43628,428.8941,358.61707,407.82855,358.61707,383.09943C358.61707,375.95544,357.33478,367.7124,356.29678,367.7124C356.05252,367.7124,354.1597,368.9336,352.08365,370.3991 Z"/> </g> <g style="fill:rgb(0,0,0); fill-opacity:1.0; stroke-linejoin: miter"> <path d="M406.4887,315.09225L402.4933,315.2446L403.98932,369.70294Q404.25818,371.42487,406.00876,371.55658Q407.74005,371.39514,407.98178,369.65732L406.4931,315.17694"/> </g> <g style="fill:rgb(0,0,0); fill-opacity:1.0; stroke-linejoin: miter"> <path d="M406.57632,359.9222Q402.92822,359.97534,400.31467,362.52676Q397.77518,365.1389,397.72705,368.79498Q397.77948,372.44986,400.32843,375.06058Q402.94717,377.60495,406.5966,377.65137Q410.24487,377.60263,412.86176,375.0536Q415.4044,372.4439,415.4562,368.78778Q415.40753,365.1329,412.86157,362.51978Q410.2463,359.973,406.59695,359.9222"/> </g> <g style="fill:rgb(0,0,0); fill-opacity:1.0; stroke-linejoin: miter"> <path d="M409.9347,363.06488L403.48276,363.4834L396.62292,425.81348L415.39435,425.5099L420.55194,425.3539L409.9391,363.09067"/> </g> <g style="fill:rgb(0,0,0); fill-opacity:1.0; stroke-linejoin: miter"> </g> <g style="fill:rgb(0,0,0); fill-opacity:1.0; stroke-linejoin: miter"> <path d="M265.05673,452.2597L265.05673,452.2597Q246.30278,460.38016,230.54965,475.63278Q198.16983,508.7418,197.45413,554.96265Q197.56717,562.36066,198.46786,569.41113L420.83533,569.411L420.83896,569.411Q421.68698,562.73303,421.81372,555.7542Q421.38953,509.52643,389.31665,476.231Q373.28543,460.59235,354.35852,452.31683L354.35498,452.31683L309.42798,512.8525L265.0594,452.2597 Z"/> </g> <g style="fill:rgb(0,0,0); fill-opacity:1.0; stroke-linejoin: miter"> </g> <g style="fill:rgb(0,0,0); fill-opacity:1.0; stroke-linejoin: miter"> <path d="M309.79974,441.15936Q305.26184,441.24268,302.0917,444.32285Q298.92273,447.55447,298.8458,452.06152Q298.89218,456.57004,302.02826,459.81982Q305.23666,462.96384,309.7549,463.0466Q314.29333,462.9734,317.47104,459.89905Q320.64743,456.67276,320.7329,452.1657Q320.69495,447.6573,317.5664,444.4022Q314.3658,441.25253,309.84802,441.15945"/> </g> <g style="fill:rgb(0,0,0); fill-opacity:1.0; stroke-linejoin: miter"> <path d="M316.36856,457.53L304.53973,460.7387L288.6057,512.3449L316.6106,544.98254L336.48483,520.9781L316.4153,457.67746"/> </g> </g> </svg>