<?xml version='1.0' encoding='utf-8'?>
<svg xmlns="http://www.w3.org/2000/svg" version="1.1" id="Layer_1" x="0px" y="0px" viewBox="0 0 2842.75 4000" enable-background="new 0 0 2842.75 4000"> <g> <path d="M1527,15.458c0,0.003,0,0.008,0.001,0.011c0.036-0.006,0.071-0.011,0.107-0.016 C1527.073,15.455,1527.036,15.456,1527,15.458z"/> <path d="M2806.398,3368.735c-0.926-5.797-4.232-11.277-4.267-17.256c-0.042-7.171,3.108-15.238,4.563-22.258 c11.293-54.474,12.388-78.191,17.184-111.996c3.804-26.817-1.695,2.045-6.881-240.802c-5.107-239.157-10.07-205.969-19.417-269.967 c-5.272-36.104-18.833-185.836-49.586-203.121c-13.402-9.336-26.74-48.495-44.005-78.721c-0.205-0.506-0.614-1.528-0.829-2.045 c-1.669-1.531-4.09-4.431-5.393-7.546c-3.262-2.4-5.092-6.071-6.632-9.678c-8.023-8.126-14.527-17.57-20.992-26.937 c-4.605-6.672-10.281-21.16-16.683-25.82c-1.819-1.324-2.745-3.326-3.294-5.393c-4.628-6.504-6.261-14.457-10.409-21.012 c-6.94-10.965-19.902-15.611-25.791-26.713c-7.364-13.883-13.732-28.135-21.766-41.697c-30.004-50.644-46.171-59.228-58.194-79.711 c-8.899-15.161-9.019-10.799-65.168-78.894c-8.175-9.914-12.934-20.427-20.109-30.948c-0.264-2.843-0.671-5.532-1.244-8.335 c-82.865-109.587-53.614-70.928-129.056-158.427c-15.222-16.366-32.817-31.897-45.242-50.32 c-15.758-9.961-31.573-43.648-66.999-67.348c-3.667-2.453-27.542-13.338-28.026-16.753c-1.033-7.326,3.783-13.555,4.745-20.6 c0.409-2.995-22.493-168.925-22.642-170.014c-5.334-39.195-0.064-97.786-76.961-88.813c-5.544,0.746-11.031-0.799-16.636-0.662 c-22.27,0.544-17.456-12.138-19.749-22.302c-1.825-8.088-11.871-41.729-3.049-103.032c-2.946-2.962-2.17-8.679,1.459-10.748 c-2.453,1.399,1.081-8.002,1.068-7.973c1.103-2.413,3.595-2.981,4.355-6.654c-1.615-2.637-2.982-5.436-4.876-7.869 c-0.021-0.689-0.054-2.078-0.075-2.777c1.453,0.517,2.82,1.27,3.864,2.519c1.432-0.334,2.896-0.646,4.392-0.937 c-0.323-0.086-0.99-0.269-1.313-0.355c-0.839-1.173-1.679-2.336-2.476-3.455c-0.151-1.206-0.269-2.39-0.344-3.563 c1.593-0.086,3.219-0.161,4.876-0.226c-0.614-0.42-1.819-1.238-2.433-1.658c-0.075-0.57-0.226-1.722-0.302-2.293 c2.239-0.549,4.5-1.13,6.782-1.669c-0.441-2.734-0.958-5.436-1.464-8.127c0.603-0.086,1.819-0.248,2.422-0.334 c-0.064-1.378-0.107-2.734-0.118-4.08c0.904,0.022,2.723,0.054,3.627,0.076c-1.895-2.325-3.369-4.963-4.123-7.858 c3.046,0.442,6.082,1.055,9.139,1.583c0.021-0.894,0.086-2.659,0.107-3.552c0.7,0.011,2.099,0.032,2.788,0.043 c-0.355-2.336-0.625-4.693-0.829-7.018c1.044-0.581,2.11-1.152,3.208-1.712c0.054-0.71,0.151-2.142,0.205-2.853 c0.495-0.42,1.475-1.259,1.97-1.679c0.032-0.721,0.108-2.185,0.151-2.906c0.882-0.032,2.637-0.075,3.52-0.097 c-1.905-3.649-3.261-7.729-1.701-11.755c1.518,0.021,3.068,0.065,4.64,0.129c-0.043-0.829-0.108-2.487-0.14-3.316 c1.141-0.538,2.303-1.055,3.509-1.54c0.829-3.337,1.754-7.169-0.807-9.989c-0.161-0.581-0.484-1.744-0.646-2.325 c0.818-0.065,2.454-0.204,3.272-0.28c0.517-1.001,1.055-2.002,1.625-2.982c0.657-0.011,1.97-0.043,2.626-0.054 c-0.43-2.067-0.807-4.133-1.141-6.179c1.755-0.452,3.552-0.883,5.361-1.314c-1.475-3.95-0.215-8.052,0.527-11.992 c0.614,0.075,1.841,0.226,2.454,0.301c0.829,0.764,1.679,1.539,2.562,2.325c0.054-0.635,0.151-1.916,0.194-2.551 c0.786-0.033,2.347-0.097,3.122-0.119c-0.237-3.165,0.409-6.147,3.542-7.578c-0.624-0.054-1.851-0.183-2.476-0.237 c0.065-1.033,0.161-2.045,0.302-3.036c2.517-3.635,2.014-3.564,4.704-6.513c-0.237-1.302-0.452-2.605-0.517-3.897 c1.098-0.754,2.357-1.162,3.628-1.625c-0.108-2.68,0.205-5.339,0.571-7.966c2.11-0.431,4.23-0.894,6.362-1.399 c0.022-2.767-0.151-5.554,0.366-8.267c1.13-1.604,3.358-1.249,5.07-1.776c-0.129-4.317,0-8.655,1.162-12.831 c-1.518,0.021-3.003,0.064-4.467,0.107c-0.473-1.507-0.979-3.057-1.356-4.542c1.658,0.57,3.348,1.206,5.005,1.927 c1.41-0.506,2.745-1.217,3.714-2.433c1.023-0.086,2.078-0.151,3.165-0.183c0.592-1.27,1.346-2.476,1.852-3.778 c-0.635-2.497-1.367-4.952-1.755-7.471c1.066-0.57,2.164-1.119,3.283-1.668c-0.431-1.744-0.829-3.488-1.184-5.21 c0.915-0.022,2.723-0.043,3.627-0.065c-1.001-3.531-1.227-7.201-1.324-10.84c1.808,0,3.639,0.021,5.501,0.054 c-0.022-1.249-0.011-2.487,0.032-3.703c1.819-0.991,3.606-2.046,5.425-3.079c-2.971-4.36-3.541-9.613-4.435-14.651 c0.797-0.065,2.4-0.183,3.197-0.248c1.163-2.207,2.347-4.403,3.552-6.588c1.399,0.442,2.799,0.905,4.252,1.4 c-0.614-3.047-1.13-6.115-1.346-9.193c1.324,0.807,2.67,1.647,4.037,2.519c-1.701-1.959-3.272-4.004-4.823-6.039 c-0.129-1.486-0.226-2.95-0.291-4.392c0.646-0.065,1.938-0.172,2.594-0.226c-0.075-0.786-0.226-2.357-0.301-3.154 c0.829-0.01,2.476-0.054,3.305-0.075c-0.861-2.809-1.658-5.619-2.39-8.439c0.861-0.064,2.573-0.215,3.434-0.29 c0.205-5.845-0.064-11.712-1.345-17.428c4.037-1.023,2.067-5.77,2.4-8.762c0.528-0.302,1.594-0.915,2.132-1.217 c-1.399-2.777-2.949-5.501-3.585-8.558c0.571-0.431,1.712-1.281,2.282-1.711c-1.141-3.789-1.927-7.654-2.217-11.583 c0.732-0.032,2.185-0.097,2.917-0.129c0.656-1.152,1.356-2.282,2.077-3.391c-0.538-2.314-1.313-4.585-1.421-6.943 c0.883-0.753,1.83-1.443,2.831-2.077c0.775-2.325,1.539-4.661,2.325-6.975c-1.991-4.661-2.067-9.731-1.991-14.705 c0.635-0.312,1.916-0.936,2.562-1.249c-0.71-0.119-2.121-0.355-2.831-0.484c1.388-4.381,1.109-8.935,0.646-13.434 c-1.238-2.11-1.625-4.532-1.808-6.911c1.249,0.291,2.551,0.603,3.865,0.915c1.141-0.947,2.4-1.733,3.778-2.368 c1.518-5.759,1.873-11.744,2.476-17.654c-1.173-0.571-2.325-1.12-3.445-1.658c0.043-0.495,0.118-1.475,0.162-1.97 c0.484-0.366,1.442-1.098,1.927-1.464c-0.183-2.993-0.872-5.942-1.162-8.902c-2.691-2.078-5.694-4.069-6.792-7.46 c1.755-0.054,3.574-0.054,5.382-0.054c0.517,0.99,1.066,1.981,1.647,2.992c1.895-0.56,3.854-0.969,5.727-1.722 c0.915-2.153,1.023-4.553,1.539-6.814c-1.981-0.097-3.929-0.183-5.856-0.269c-0.527-1.292-1.044-2.573-1.507-3.843 c1.486-2.992,2.713-6.093,3.972-9.193c-0.699-3.122-1.022-6.383,0.183-9.419c-0.398-1.335-0.786-2.659-1.12-3.961 c-0.99-0.549-1.959-1.076-2.896-1.604c0.161-1.238,0.366-2.454,0.603-3.66c-0.743-1.518-1.464-3.047-2.121-4.564 c1.356,0.054,2.756,0.118,4.177,0.194c0.097,0.355,0.291,1.066,0.398,1.421c0.592-1.819,1.249-3.628,1.905-5.425 c-1.582-1.195-2.68-2.82-3.445-4.596c1.561-0.097,3.154-0.172,4.78-0.237c-0.032-10.135,2.009-11.635-2.401-23.155 c-2.982-2.885-5.802-5.942-9.042-8.504c-0.086-0.796-0.269-2.368-0.355-3.154c4.65,1.044,8.719,3.682,13.37,4.801 c-1.012-3.455-2.175-6.868-2.949-10.377c-0.646-0.926-1.173-1.798-1.776-2.67c1.485-2.314,0.926-4.919,0.28-7.363 c0.28-1.367,0.775-2.702,0.796-4.091c-2.153-1.249-4.693-1.798-6.566-3.434c-0.764-1.367-0.904-2.96-1.26-4.424 c1.776-0.032,3.596-0.032,5.426-0.032c0.075,1.572,0.172,3.154,0.302,4.758c0.376-0.646,1.119-1.938,1.496-2.583 c0.711,0.075,2.121,0.215,2.82,0.29c-1.539-4.284-2.616-8.751-3.133-13.262c0.527-1.184,1.313-2.218,2.045-3.294 c-0.56-0.032-1.69-0.097-2.261-0.129c0.043-0.721,0.129-2.163,0.183-2.885c0.84,0.011,2.541,0.022,3.391,0.032 c-1.184-3.778-0.667-7.794-1.819-11.55c-0.517-1.367-0.011-2.767,0.226-4.112c-1.27-0.936-1.981-2.25-2.454-3.681 c1.066-0.043,3.175-0.151,4.23-0.204c-0.915-1.798-1.991-3.509-2.562-5.436c0.258-2.045,1.464-3.8,2.347-5.619 c-1.346-1.184-3.811-1.83-3.456-4.015c0.947-1.486,2.185-2.767,3.359-4.08c-1.163-2.928-2.024-5.964-2.368-9.085 c3.326-0.98,2.26-4.144,0.829-6.222c-1.26-1.378,0.291-2.121,1.399-2.874c-1.862-2.497-2.885-6.168-5.964-7.341 c-0.291,0.656-0.883,1.97-1.174,2.616c-1.13-0.097-2.228-0.194-3.294-0.269c-0.162-1.356-0.301-2.702-0.409-4.026 c0.646,0.075,1.938,0.226,2.584,0.301c-0.194-2.228-0.377-4.467-0.485-6.674c2.67,0.538,5.609,0.656,7.966,2.25 c-0.344-1.335-0.646-2.68-0.894-4.004c-0.204,0.538-0.624,1.615-0.829,2.153c-1.453-0.571-3.089-1.593-4.65-0.613 c-0.635-1.733-1.238-3.477-1.787-5.21c1.292,0.065,2.616,0.14,3.972,0.226c0.474,0.377,1.41,1.13,1.884,1.507 c-1.934-3.563-4.867-8.142-1.442-10.991c0.107-1.388,0.258-2.767,0.42-4.133c1.227-0.818,2.476-1.647,3.746-2.476 c-1.195-1.033-2.303-2.035-3.445-3.036c-2.476-1.076-4.069-3.219-5.533-5.339c-0.108-1.173-0.183-2.347-0.237-3.498 c1.227-0.926,2.476-1.841,3.757-2.723c-0.398-4.973-0.581-9.946-1.647-14.823c0.312-0.237,0.947-0.71,1.259-0.947 c-0.99-1.076-2.002-2.196-2.885-3.262c2.303-0.958,4.467-2.282,6.373-3.929c-1.744-1.066-3.445-2.099-5.146-3.132 c-1.507-1.905-3.122-3.714-4.79-5.447c-0.021-0.441-0.065-1.335-0.097-1.776c1.443-1.141,2.874-2.293,4.306-3.477 c-1.13-2.401-1.378-4.995-0.775-7.557c-1.345-1.443-1.593-3.401-1.905-5.232c0.721-0.301,1.464-0.592,2.25-0.872 c-2.088-0.689-4.123-1.378-6.157-2.067c-0.032-1.711-0.032-3.412,0-5.102c0.721-0.032,2.175-0.086,2.896-0.118 c-0.409-2.293-0.753-4.596-1.076-6.879c-1.701-1.539-2.594-3.638-3.315-5.737c1.647-0.119,3.326-0.237,5.027-0.334 c-1.227-1.443-2.551-2.799-3.531-4.392c0.011-2.142,0.571-4.22,0.667-6.351c-0.699-2.799-1.658-5.544-2.142-8.386 c0.786-0.14,2.368-0.409,3.165-0.549c-1.227-0.743-2.39-1.475-3.542-2.196c-0.387-4.177-1.852-8.407-0.344-12.519 c0.753,0.033,2.26,0.097,3.014,0.129c0.161-1.884,2.594-4.446,0.302-5.759c-4.791-3.531-7.406-9.311-12.778-12.11 c-0.15-1.841-0.269-3.66-0.355-5.479c-1.625-1.238-3.176-2.519-4.682-3.843c-1.281-0.097-2.53-0.172-3.746-0.248 c-0.043-1.367-0.054-2.724-0.032-4.069c3.423,0.43,6.846,0.98,10.323,1.238c-1.367-0.926-2.702-1.808-4.026-2.691 c-0.215-2.799,1.023-4.973,4.048-4.908c-1.27-0.312-2.54-0.646-3.735-0.979c-0.151-1.69-0.28-3.38-0.387-5.06 c-2.142,2.896-5.21,4.338-8.827,3.854c0.312-1.206,0.721-2.379,1.227-3.531c2.185-0.872,5.005-0.549,6.534-2.713 c0.538-0.054,1.615-0.151,2.164-0.194c0.043,0.743,0.14,2.228,0.194,2.982c4.344,0.846,1.19,0.365,5.673,1.066 c-1.443-1.464-1.012-3.38-0.721-5.167c-0.71-0.689-1.388-1.378-2.034-2.056c-8.433-0.688-6.151-0.231-7.352-4.575 c1.755-1.27,3.445-2.648,5.07-4.123c-2.271-0.56-4.532-1.066-6.782-1.507c-0.764-0.71-1.486-1.399-2.185-2.088 c-0.075-0.689-0.237-2.078-0.312-2.766c2.196,0.011,4.414,0.032,6.663,0.054c-0.107-1.421-0.183-2.831-0.237-4.23 c0.657-0.097,1.959-0.291,2.605-0.377c-0.861-0.872-1.69-1.722-2.497-2.573c0.678-3.036,0.054-7.234,3.423-8.795 c-1.076-0.248-2.11-0.485-3.122-0.721c-0.84-0.775-1.658-1.54-2.444-2.293c-0.075,0.936-0.226,2.82-0.301,3.757 c-0.732-0.011-2.196-0.022-2.928-0.032c-0.011-1.367,0.011-2.734,0.053-4.08c0.84-0.043,2.519-0.129,3.359-0.161 c0.011-1.173,0.043-2.336,0.108-3.499c1.033-0.904,2.121-1.787,3.122-2.777c-1.12-1.195-2.357-2.228-3.294-3.531 c0.291-1.27,0.657-2.519,1.119-3.746c-1.13-0.775-2.26-1.529-3.347-2.26c-0.883-2.648-1.195-5.425-1.206-8.181 c2.853-1.313,2.303-4.779,3.068-7.32c-0.732-0.011-2.196-0.043-2.928-0.054c-0.064-2.035-0.15-4.08-0.161-6.114 c1.335,0.032,2.713,0.108,4.134,0.204c-0.56-1.335-2.864-0.172-3.768-0.689c-0.549-1.604-1.066-3.197-1.54-4.79 c0.571-0.086,1.701-0.258,2.271-0.345c-4.151-6.717-0.19-10.551,2.282-13.391c-3.736-0.807-2.756-6.319,0.376-7.298 c-0.215-0.065-0.656-0.194-0.883-0.248c-1.302-1.658-2.497-3.466-4.241-4.661c-1.938-0.42-3.897-0.463-5.802-0.613 c-0.086-3.779-1.12-7.395-2.713-10.786c-1.916,0.312-3.94,0.549-5.113,2.271c-0.958-0.011-1.873-0.011-2.756-0.011 c-3.219-1.938-5.996-4.618-6.308-8.579c1.594,0.398,3.272,0.84,4.919,1.302c-0.065-1.97-0.097-3.929-0.107-5.888 c0.839-0.248,2.519-0.732,3.358-0.969c0.011-1.819-1.841-2.562-2.96-3.617c-0.721-2.239-2.26-4.855,0.28-6.685 c1.195,1.475,2.153,3.111,3.003,4.833c0.215-1.098,0.484-2.185,0.807-3.272c-1.518-0.872-3.111-1.669-4.64-2.379 c0.431-2.067,0.915-4.112,1.453-6.147c3.455,0.301,4.198,3.369,4.252,6.351c1.367,1.324,2.713,2.702,4.058,4.101 c2.023-7.32,2.153-15.436-1.26-22.369c0.743-0.301,2.217-0.894,2.96-1.195c-0.818-0.205-2.465-0.603-3.283-0.797 c-0.396-3.53-0.121-11.071-1.529-17.245c0.915,0.517,2.766,1.561,3.682,2.089c-1.862-2.013-4.134-3.595-5.813-5.748 c2.25,3.617,2.724,7.912,3.036,12.078c-3.154-1.399-6.028-3.369-8.321-5.931c-0.452-3.358-0.581-6.9-2.917-9.591 c0.528,1.087,1.066,2.174,1.658,3.262c0.054,1.841,0.14,3.681,0.28,5.533c-2.078,0.592-4.22,0.7-6.319,0.474 c1.443-1.905,1.141-4.252,0.958-6.459c-3.574-1.314-7.18-2.541-10.862-3.423c-0.786-0.667-1.528-1.324-2.25-1.97 c1.356-5.64,1.022-11.744-2.196-16.707c-0.107,1.583-0.172,3.176-0.194,4.78c1.722,0.764,3.208,1.819,2.68,4.004 c-4.512,1.147-3.803,0.898-8.633,1.798c-0.754-0.839-1.475-1.658-2.175-2.487c-0.118-1.496-0.204-2.992-0.258-4.489 c0.485-0.204,1.443-0.635,1.927-0.84c0.84-1.647,1.733-3.272,2.627-4.908c1.539-0.043,3.111-0.086,4.715-0.14 c-1.755-2.293-4.586-2.411-7.18-2.497c-0.086,0.904-0.237,2.702-0.312,3.606c-0.721,0-2.164-0.011-2.885-0.011 c-0.043-1.378-0.053-2.756-0.043-4.123c0.753-0.043,2.26-0.151,3.014-0.194c0.086-0.603,0.237-1.798,0.312-2.4 c1.582-1.335,2.443-3.229,3.315-5.07c-1.582-2.497-3.251-5.07-3.197-8.127c-3.402-3.014-3.036-7.976-3.606-12.089 c-1.507-0.377-2.982-0.624-4.371-1.152c-0.559-1.679-0.818-3.423-1.335-5.092c-1.518-2.11-3.52-3.8-5.307-5.63 c0.032,1.992,0.151,3.983,0.258,5.985c-1.895,0.043-3.768,0.097-5.608,0.151c-0.926-2.293-0.14-4.392,1.442-6.147 c0.829-0.011,2.497-0.011,3.337-0.022c-0.979-2.949-1.991-5.888-3.283-8.698c-0.226,1.668-0.398,3.348-0.528,5.027 c-2.971,2.583-6.437,4.672-10.474,4.736c0.409-4.596,2.293-8.859,3.768-13.187c2.422,0.43,4.833,0.915,7.277,1.367 c-0.011-2.54,0.011-5.081,0.054-7.61c1.421,0.043,2.874,0.086,4.36,0.151c0.829,0.883,1.69,1.765,2.583,2.648 c0,1.302,0.032,2.605,0.097,3.918l1.658-0.118c-0.345-2.788,0.699-6.459-2.056-8.278c-2.228-2.131-5.49-0.668-7.492,0.969 c-0.624,0.172-1.862,0.506-2.476,0.668c-0.592,1.292-1.162,2.583-1.69,3.886c-3.8,1.55-7.977,3.143-11.927,1.173 c-3.263-16.43-5.514-12.175-5.942-21.831c5.931,1.152,6.061,7.869,8.353,12.282c-0.624-3.498-1.636-6.911-2.939-10.216 c-0.743-0.377-2.207-1.12-2.939-1.496c0.215-1.443,0.538-2.863,0.947-4.263c-0.538-1.432-1.055-2.863-1.529-4.295 c1.281-0.011,2.605-0.011,3.951-0.011c0.527,0.7,1.604,2.099,2.131,2.788c-0.355-2.734-0.807-5.458-1.292-8.159 c1.345,0.022,2.713,0.054,4.112,0.086c1.335,3.046,2.282,6.254,2.853,9.538c-1.184-5.425,0.99-10.818,0.086-16.233 c-0.054,1.604-0.129,3.186-0.086,4.79c-5.727,0.14-5.867-6.416-6.104-10.549c1.625-0.613,3.337-1.238,4.984-1.927 c-0.7-0.345-2.078-1.034-2.766-1.378c0.161-0.829,0.506-2.487,0.678-3.316c-1.195-2.013-2.175-4.133-2.993-6.319 c0.786-0.786,1.594-1.561,2.433-2.347c-6.577-4.166-7.115-12.519-9.397-19.225c-0.829-3.014-4.026-4.144-6.48-5.479 c-1.184-2.314-1.668-5.35-4.252-6.545c-2.863-1.625-5.953-2.82-8.601-4.779c-0.42-1.259-0.829-2.519-1.227-3.768 c-0.151,0.915-0.463,2.756-0.614,3.671c-1.582-0.075-3.122-0.151-4.64-0.216c-0.85-0.775-1.668-1.561-2.465-2.325 c0.226-1.744,0.495-3.477,0.84-5.199c-1.173-0.915-2.304-1.819-3.412-2.745c-0.657-0.086-1.981-0.28-2.648-0.377 c-12.888-12.724-6.817-15.053-16.814-16.309c-1.539-1.442-3.079-2.863-4.607-4.284c-0.129-0.592-0.398-1.787-0.527-2.379 c-8.396-3.983-16.405-8.881-25.232-11.906c-2.583-2.142-5.759-3.283-8.558-5.016c-1.173-2.465-1.453-5.21-1.808-7.869 c-3.929-2.95-7.912-5.932-12.594-7.546c-0.14,1.033-0.431,3.111-0.581,4.155c-2.863-0.894-5.942-2.024-6.512-5.361 c1.012-0.075,3.046-0.226,4.069-0.301c-21.998-25.682-24.066-15.332-32.714-21.045c-14.291,0.894-14.032-0.126-17.944-2.896 c-0.258-1.647-0.377-3.283-0.657-4.919c-0.151,2.465-0.237,4.941-0.441,7.406c-1.819-0.441-3.595-0.894-5.372-1.378 c-0.527-1.625-1.023-3.251-1.475-4.887c-1.948-0.452-3.875-0.926-5.77-1.442c-1.109,1.044-2.207,2.099-3.262,3.165 c-6.846,0.775-13.703-2.347-18.267-7.363c-3.305-0.194-6.62,0-9.86-0.517c-1.841-0.883-1.173-3.337-1.679-4.941 c2.519,0.172,5.07,0.398,7.621,0.678c-1.733-0.527-3.434-1.066-5.124-1.615c-0.032-1.443-0.032-2.885,0-4.338 c-3.122,0.075-6.233-0.183-8.967-1.766c-6.351,1.529-11.927-2.357-18.084-2.928c-2.54-0.29-4.898-1.281-7.019-2.626 c-6.136-1.572-12.39-3.089-18.763-2.68c-3.079-0.194-6.663,0.937-9.247-1.227c-5.565,0.678-10.958-1.173-15.749-3.832 c-3.563-0.086-6.857,2.034-10.463,1.916c-5.436-0.043-10.84,0.334-16.19,1.205c-0.086,0.775-0.258,2.336-0.334,3.122 c-3.025-0.032-6.061,0.161-9.042-0.216c-1.539-0.775-1.335-2.799-1.851-4.144c1.881-0.097,3.406,0.153,4.984,0.571 c0.248-0.054,0.754-0.162,1.001-0.215c0.452-0.258,1.367-0.775,1.819-1.023c-2.842-0.926-5.673,0.42-8.493,0.624 c-3.38-1.152-6.9-1.808-10.409-2.164c-0.42-1.335-0.797-2.68-1.173-4.004c-5.684,1.162-11.271,2.939-17.105,3.132 c-1.206-1.539-2.401-3.079-3.574-4.618c-0.097,1.583-0.172,3.165-0.226,4.747c-2.121-0.334-4.672-0.011-5.834-2.228 c-0.667,0.657-1.324,1.302-1.938,1.959c-1.13,0.011-2.239,0.022-3.326,0.032c-0.538-1.669-0.291-3.854-1.862-4.973 c-2.971-0.538-5.964-0.7-8.892-1.292c-0.431-2.347-0.872-4.683-1.367-7.008c-12.106,1.25-8.839,2.742-14.446-1.443 c-1.712,0.248-3.412,0.485-5.07,0.711c-2.024-1.206-4.134-2.218-6.308-3.014c-4.51,2.239-8.633-2.056-13.219-1.195 c-5.221,0.958-10.463,0.129-15.641-0.581c-2.078-0.237-2.928-2.454-4.187-3.778c-2.842,0.258-6.803-1.012-8.073,2.465 c-3.197-1.184-6.2-2.799-8.989-4.737c-0.108,0.043-0.334,0.129-0.452,0.172c1.292,0.775,2.573,1.55,3.907,2.325 c0.011,0.818,0.054,2.454,0.065,3.272c-22.906-4.421-62.443,12.055-61.616-1.54c9.138-3.469,8.569-5.237,12.229-5.598 c22.378-1.793,11.791,0.014,20.808,0.603c0.366-0.506,1.109-1.539,1.475-2.056c3.542-0.043,7.094,0.312,10.582,1.055 c-0.258-2.896-2.497-4.543-4.758-5.932c-0.032-0.678-0.097-2.034-0.129-2.712c1.12,0.097,2.271,0.204,3.455,0.323 c3.843,3.283,9.161,1.787,13.66,0.969c11.698-2.919,24.35,1.615,27.708,3.811l-0.302-2.153c3.337,1.658,6.707,3.305,10.183,4.672 c-3.326-1.528-6.523-3.337-9.893-4.726c-3.003,0-6.254-0.635-6.771-4.144c-0.259,0.129-0.775,0.398-1.034,0.527 c-0.226,0.377-0.689,1.13-0.915,1.496c-2.777,0.915-4.919-1.292-5.328-3.875c-4.005-0.248-7.374-3.1-11.443-2.54 c-5.758,0.796-12.954-4.736-14.059-5.361c-3.455,0.646-6.76,2.583-10.356,1.905c-1.367-0.958-1.378-2.874-2.013-4.252 c-14.889,3.395-9.639,4.34-32.746,7.449c-6.861,0.74-13.435,3.135-20.226,4.172c2.462-0.147,4.955-0.242,7.449-0.232 c-0.538,1.528,0.108,3.778-1.604,4.693c-1.948,0.646-4.823-0.301-5.651,2.11c-2.96,0.797-5.964,1.41-9.01,1.593 c-0.043-1.303-0.054-2.616-0.054-3.918c2.96-0.527,5.899-1.765,8.967-1.173c-0.054-0.761-0.15-2.279-0.204-3.057 c-13.079,1.966-26.166,1.495-33.662,1.184c-4.026-3.918-9.968-0.334-14.834-1.087c-3.574-0.786-7.169-0.388-10.732,0.011 c-24.138-6.246-26.976-8.631-32.681-7.503c-7.675,1.27-14.672-2.928-21.432-5.856c-2.627-0.656-5.35-0.484-8.009-0.581 c-0.42-0.409-1.259-1.227-1.679-1.636c-0.366,0.409-1.109,1.217-1.475,1.626c-6.739-0.958-13.187,2.347-19.936,1.647 c-8.063-0.592-16.115,0.248-24.156,0.323c-0.668,0.84-1.303,1.669-1.927,2.508c-1.27,0.086-2.519,0.183-3.757,0.269 c-0.431,0.463-1.292,1.367-1.722,1.819c-4.058,0.086-8.106,0.474-12.035,1.486c-8.1,8.977-18.378,0.518-24.651,3.671 c-3.014,0.936-2.648,5.458-5.899,5.996c-3.897,1.819-8.073-0.334-12.099,0.463c-3.735,0.603-7.438-0.786-11.13-0.054 c-3.036,0.474-6.114,0.527-9.15,0.43c-6.491-0.495-13.057,2.638-19.376,0.075c-2.939-1.302-6.007,0.517-7.352,3.187 c-1.033-0.011-2.056-0.022-3.046-0.022c-0.355-0.409-1.076-1.217-1.432-1.626c-3.219,0.506-6.416-0.215-9.559-0.71 c-0.065-0.678-0.183-2.045-0.237-2.734c3.843-0.463,10.086,0.969,11.507-3.854c-2.777,1.905-5.942,2.906-9.311,2.357 c-1.701-0.947-3.434-1.819-5.156-2.648c-0.065-0.581-0.194-1.755-0.258-2.336c1.755-0.42,3.531-0.829,5.318-1.217 c-2.745-0.097-5.501-0.14-8.224-0.183c-0.086-0.807-0.269-2.411-0.355-3.218c-5.049,0.28-10.065-0.183-15.049-0.786 c-5.102,0.667-10.431,1.561-15.329-0.603c-3.595-3.681-9.462,1.518-13.187-2.164c-6.427,0.71-12.896,0.161-19.204-1.109 c-4.833,0.538-9.828,0.797-14.478-0.829c-5.232-1.766-10.808-0.721-16.168-1.421c-6.739-1.259-13.725,1.173-19.043,5.285 c-3.208,2.638-7.514,2.497-11.195,3.962c0,0-8.947,6.376-14.661,9.903c-2.583,4.091-7.374,6.007-9.882,10.151 c-2.616,0.108-5.242,0.086-7.815,0.442c-9.182,3.94-18.278,8.558-28.053,10.894c-0.538,0.958-1.066,1.916-1.572,2.885 c-32.047,3.681-35.952,12.633-51.81,18.903c-1.367,0.538-1.539,2.282-2.293,3.369c-17.546,11.178-22.153,15.975-27.202,11.798 c-2.863,1.873-5.651,3.854-8.504,5.727c3.046-1.432,6.19-2.638,9.494-3.38c-0.032,1.281-0.054,2.562-0.054,3.854 c-2.099,2.002-4.155,4.047-6.448,5.824c-4.521,3.316-6.9,8.676-11.41,12.024c0.377-4.112,2.767-7.503,4.596-11.055 c-12.727,10.404-16.176,10.564-17.169,18.321c3.886-3.133,7.309-6.793,10.851-10.313c-1.033,3.38,0,8.041-3.595,10.011 c-4.252,2.777-8.655,5.49-11.798,9.58c-2.627,3.542-6.394,6.05-8.698,9.85c-2.261,3.789-5.641,6.695-8.138,10.291 c2.088-1.346,4.177-2.702,6.523-3.617c-0.054,2.767-0.226,5.63-1.938,7.933c-2.271,3.337-3.24,7.482-6.104,10.399 c0.021,0.323,0.054,0.969,0.075,1.281c-2.034,5.167-2.336,10.786-2.433,16.276c0.775,2.939,3.768,4.79,4.596,7.75 c1.819,7.987-2.81,16.222,0.581,24.059c3.617,1.679,5.307,5.372,5.501,9.204c-1.227-0.581-2.444-1.163-3.649-1.744 c1.195,4.715,2.939,9.505,1.884,14.435c0.883,1.388,1.755,2.777,2.659,4.177c0.312-1.346,0.635-2.691,0.969-4.026 c-0.215,1.733-0.409,3.466-0.581,5.21c1.529,2.26,1.324,5.005,1.765,7.578c1.708,4.229,10.777,14.488,13.111,16.05 c3.014,2.174,6.922,3.757,8.073,7.665c-1.744,0.032-3.466,0.043-5.178,0.064c-0.495-1.442-0.969-2.863-1.486-4.273 c0.893,5.985,4.79,10.775,7.385,16.072c-1.636-3.51-3.477-7.051-3.649-11.002c2.497,0.797,4.941,1.766,7.374,2.777 c0.441,1.766,0.926,3.531,1.41,5.296c0.721,0.054,2.164,0.151,2.874,0.194c0.904,0.926,1.83,1.851,2.766,2.777 c1.27,0.183,2.573,0.366,3.875,0.549c2.282,2.315,4.327,4.866,5.996,7.665c2.271,0.667,3.778,2.282,4.403,4.564 c-0.646,0.064-1.959,0.183-2.616,0.237c0.42,1.572,0.797,3.132,1.195,4.726c-2.82-0.657-5.092-2.444-7.384-4.091 c3.445,3.746,9.258,5.738,9.796,11.508c-4.381-0.958-8.708-3.359-13.187-1.356c-0.043-0.753-0.129-2.271-0.172-3.025 c0.678-0.118,2.045-0.366,2.724-0.484c-1.615-1.098-3.219-2.207-4.801-3.326c-0.086,0.635-0.237,1.905-0.323,2.53 c-0.689-0.022-2.088-0.075-2.788-0.108c0.388-2.799,0.581-5.63,0.495-8.461c-0.334,1.959-0.71,3.907-1.023,5.877 c-2.982-1.453-5.63-3.402-8.106-5.565c1.625,1.647,3.251,3.294,4.952,4.887c0.108,1.453,0.215,2.896,0.366,4.359 c9.987,5.474,1.081,2.079,15.017,10.291c-0.474-1.658-0.947-3.316-1.367-4.973c3.66-0.161,7.051,1.152,9.817,3.531 c0.011,0.85,0.011,2.541,0.022,3.391c-2.788-0.646-5.479-1.572-8.138-2.562c1.604,1.227,3.219,2.422,4.844,3.649 c0.022,0.743,0.075,2.239,0.108,2.982c-3.122-0.075-6.33-0.29-8.924-2.196c0.883,1.615,1.389,3.391,1.83,5.178 c-1.765-0.086-3.52-0.183-5.253-0.28c-2.596,3.95-0.579,7.306-1.706,10.524c-1.891,5.395-13.533,16.804-22.165,29.1 c-24.666,35.131-39.025,49.447-68.709,106.735c-52.695,101.7-82.141,257.604-85.446,265.455 c-2.679,6.364-50.601,58.136-46.545,68.715c3.38,8.815,5.541,10.678-5.336,10.379c-55.542-1.53-57.67-2.701-77.564,5.367 c-63.697,25.83-38.419,48.378-38.182,71.187c0.048,4.588-1.198,7.388-0.065,12.068c2.127,8.792,8.172,16.404,11.476,24.745 c30.736,77.584,27.997,84.903,43.427,116.877c0.689,6.372,7.007,9.656,9.788,15.065c5.649,11.016-15.382,29.6-21.244,37.482 c-35.194,47.323-25.761,62.845-9.965,92.7c9.708,7.97,10.813,25.076,87.43,47.482c3.681,1.69,7.04,6.168,4.704,10.194 c-2.056,3.499-2.497,7.492-2.336,11.486c-0.517,0.442-1.55,1.302-2.056,1.733c-0.043,1.443-0.086,2.917-0.108,4.392 c-1.518-0.732-3.003-1.464-4.467-2.218c-1.916,0.302-3.843,0.581-5.737,0.883c-0.441,0.366-1.335,1.109-1.776,1.485 c-3.445,0.85-6.814,1.959-10.237,2.853c0.054,2.864-0.409,6.082,1.884,8.31c0.097-1.744,0.183-3.466,0.269-5.178 c1.238-0.043,2.476-0.075,3.735-0.097c0.172,0.592,0.506,1.787,0.678,2.379c1.787-3.972,6.9-1.776,10.302-2.293 c0.021,1.443,0.065,2.896,0.108,4.37c-3.272-0.603-6.556-1.184-9.86-1.55c0.032,1.313,0.075,2.648,0.129,4.005 c1.055,0.635,2.088,1.335,3.1,2.099c-0.043,2.315-0.786,4.543-1.238,6.814c-1.259,0.452-2.508,0.926-3.735,1.421 c-0.388,1.776,0.409,4.887-2.508,4.23c-0.603-1.195-1.173-2.379-1.722-3.552c-1.087-0.431-2.142-0.85-3.197-1.26 c0.85,2.325,1.873,4.564,2.853,6.857c-2.078,2.304-2.379,6.427-5.813,7.245c-1.798,0.355-3.509-0.807-5.21-1.162 c-0.764,0.872-1.507,1.755-2.25,2.659c0.129,1.615,0.269,3.251,0.42,4.898c-0.646,0.258-1.948,0.775-2.605,1.022 c1.195,0.614,2.368,1.292,3.509,2.045c-0.183,1.636-0.646,3.24-1.033,4.866c-1.012-0.086-3.025-0.248-4.026-0.334 c1.227,0.495,2.465,0.958,3.66,1.647c0.301,1.259,0.57,2.551,0.807,3.864c-0.689,0.108-2.078,0.323-2.767,0.431 c-1.023,0.926-2.045,1.841-3.068,2.767c0,0.603,0.011,1.83,0.021,2.443c2.078,0.409,4.779-0.377,6.351,1.453 c0.398,2.982,0.323,6.05-0.14,9.042c-0.861,1.206-2.659,1.077-3.897,1.679c-1.539,1.561-2.928,3.272-4.134,5.113 c1.582,0.032,3.176,0.064,4.79,0.107c1.442,2.82,3.025,5.877,1.421,9.01c-2.035,0.291-4.338,0.409-4.887,2.852 c-0.183-0.14-0.538-0.409-0.711-0.549c-0.797,1.808-1.593,3.617-2.39,5.447c0.355-0.172,1.087-0.528,1.442-0.7 c0.183-0.657,0.538-1.97,0.721-2.627c2.745,0.097,4.543,1.712,5.081,4.36c-1.163,0.56-2.314,1.12-3.455,1.701 c-0.151,2.218-0.28,4.446-0.409,6.696c-1.539,2.239-3.079,4.489-4.779,6.61c-0.194,0.926-0.377,1.873-0.538,2.853 c-1.83,1.927-3.025,4.973-6.039,5.189c3.402,0.624,6.814,1.13,10.269,1.346c0.506-1.227,1.033-2.433,1.561-3.617 c-0.807,0.011-2.433,0.022-3.251,0.022c-0.388-1.399-0.829-2.766-1.044-4.166c0.689-1.464,1.647-2.766,2.508-4.101 c0.56-0.107,1.679-0.312,2.239-0.409c1.281-1.733,2.637-3.412,4.004-5.07c1.604-0.075,3.219-0.14,4.833-0.172 c1.367,3.52,1.033,7.18-1.658,9.968c-0.215,1.249-0.409,2.508-0.581,3.789c-2.401,2.25-5.156,4.047-7.977,5.727 c1.615,1.012,3.229,2.024,4.855,3.057c0.108-0.807,0.323-2.411,0.42-3.219c0.549,0.054,1.636,0.172,2.185,0.237 c0.98,2.142,3.262,2.099,5.296,2.336c0-0.915,0-2.734,0.011-3.649c1.496,0.022,3.003,0.054,4.532,0.108 c-0.452,1.884-0.904,3.778-1.399,5.673c1.765-0.603,3.542-1.173,5.339-1.701c0.387,5.586-6.69,17.322-6.965,27.137 c-1.604,2.498,0.732,4.263,2.971,5.027c-0.549-4.047-1.324-8.052-1.389-12.132c1.098-0.506,2.207-0.99,3.337-1.464 c0.011-0.797,0.032-2.39,0.043-3.197c1.356,0,2.723,0.021,4.101,0.054c2.593,7.213-4.617,8.576,0.937,11.539 c0.686,10.187-2.881,8.74-1.83,27.041c0.118-2.605,0.323-5.188,0.678-7.75c1.507,0.463,3.531,0.086,4.801,1.206 c1.27,2.627,1.399,5.673,1.916,8.536c-0.969,0.463-1.938,0.937-2.896,1.442c0.344,2.024,0.624,4.058,0.915,6.125 c1.356,1.26,2.713,2.519,4.091,3.811c-0.032,2.767-0.043,5.544-0.043,8.343c0.829,0.011,2.476,0.022,3.305,0.033 c0,3.38-0.075,6.771-0.549,10.14c1.001,3.1,1.636,6.329,1.195,9.613c0.549,0.172,1.625,0.527,2.174,0.7 c1.496,1.733,2.637,3.724,2.282,6.125c0.872,0.484,1.755,1.001,2.637,1.528c-0.043,2.713-2.863,6.696,0.807,8.106 c-0.398,2.573-2.508,6.427,1.206,7.503c-0.484,2.562-1.033,5.113-1.496,7.686c0.915,0.075,2.766,0.215,3.692,0.28 c-0.151,2.842-0.312,5.684-0.581,8.547c-3.402,3.499-3.283,8.58-3.122,13.133c-5,5.125-3.396,2.129-4.101,13.876 c-2.002,0.99-1.733,2.766-1.066,4.585c-1.12,2.11-2.314,4.177-3.283,6.384c2.487-3.832,4.726-7.859,6.254-12.164 c0.624-0.01,1.873-0.043,2.497-0.054c0.451,4.905,2.992,2.058-2.368,8.708c2.25-0.043,4.5-0.054,6.76-0.043 c0.032-1.485,0.075-2.949,0.129-4.403c0.84,0.032,2.508,0.097,3.348,0.129c-0.377,1.808-0.743,3.649-1.163,5.479 c0.441,1.066,0.893,2.153,1.356,3.272c1.712-2.271,3.488-4.478,5.307-6.652c2.368,0.011,4.747,0.032,7.137,0.064 c-0.032,1.927-0.043,3.865-0.043,5.835c-1.044,0.506-2.078,1.033-3.089,1.582c1.313,2.648,2.11,5.512,2.411,8.472 c-0.98,0.043-2.939,0.129-3.918,0.172c0.732,0.807,1.475,1.636,2.239,2.476c0.667,3.401,1.227,6.846,1.27,10.345 c-1.539,2.304-2.584,4.887-3.563,7.482c1.442,0.075,2.885,0.172,4.349,0.291c1.109,1.141,2.228,2.293,3.359,3.444 c0.118,1.152,0.248,2.325,0.387,3.52c2.024,0.7,4.037,1.507,5.996,2.422c0.484,2.455,1.12,5.092,3.585,6.34 c-0.097,3.692-0.42,7.395-0.721,11.098c-2.142,3.025-2.497,7.621-6.243,9.225c0.194,1.938,0.344,3.875,0.484,5.856 c-2.11,1.733-2.906,4.381-3.908,6.825c0.301,1.464,0.571,2.949,0.85,4.467c-0.527,0.441-1.604,1.313-2.142,1.755 c0.021,3.154-0.592,6.48-3.542,8.235c1.098,0.398,2.207,0.818,3.316,1.271c-0.032,1.335-0.065,2.68-0.075,4.047 c-1.905,1.378-3.811,2.745-5.694,4.155c-0.614,0.118-1.841,0.377-2.444,0.495c-3.332,3.414-0.359,0.503-4.23,3.821 c3.445-1.302,6.685-3.305,10.528-3.078c-0.366,2.088,0.269,4.854-1.97,6.114c0.258,1.292,0.517,2.584,0.786,3.94 c-1.443,0.894-2.282,2.325-2.863,3.897c-0.56,0.086-1.679,0.269-2.239,0.355c-1.744,1.367-3.509,2.723-5.199,4.177 c-2.304-0.097-4.586-0.28-6.846-0.656c-2.788,6.106-3.783,7.088-4.876,9.548c0.334-0.043,1.001-0.129,1.335-0.162 c1.658-2.207,3.412-4.327,5.124-6.48c1.475-0.032,2.971-0.043,4.467-0.032c0.441,1.399,0.915,2.831,1.367,4.284 c-1.948,2.024-2.896,5.436-6.147,5.641c1.567,4.867-2.645,9.851-4.683,19.161c-0.065,2.723,1.647,5.081,2.583,7.578 c0.624-0.033,1.884-0.075,2.508-0.108c0.463-2.185,0.99-4.338,1.561-6.469c0.743,0,2.239,0.011,2.982,0.011 c0.022,2.078,0.054,4.188,0.086,6.308c-0.872,0.065-2.616,0.194-3.488,0.248c1.636,5.813,2.476,11.787,3.208,17.783 c1.808-0.258,3.606-0.506,5.436-0.689c-0.409-1.895-0.786-3.8-1.12-5.651c1.346,0.291,2.723,0.678,4.08,1.044 c1.012-1.851,2.594-3.068,4.715-3.337c-0.054,1.238-0.108,2.498-0.151,3.789c-1.507,1.475-2.627,3.272-3.585,5.156 c-0.667,0.054-2.002,0.14-2.67,0.194c-0.043,2.099-0.075,4.22-0.097,6.362c0.85,0.021,2.54,0.065,3.38,0.086 c1.227,4.414,4.575,9.473,1.389,13.801c5.814,13.355,1.388-1.458,8.795,24.016c2.637,0.646,4.984,1.927,5.253,4.93 c0.764,0.893,1.55,1.819,2.347,2.755c1.399,7.04,4.284,13.682,8.084,19.753c-2.067-3.681-3.638-7.643-3.38-11.927 c6.309,2.29,7.927,1.819,10.043,14.134c-0.7,0.075-2.099,0.226-2.799,0.301c0.678,0.829,1.356,1.679,2.056,2.551 c0,6.835,6.831,12.469,10.539,15.512c-0.42-3.197-1.076-6.33-1.636-9.462c0.635,0.032,1.916,0.118,2.551,0.151 c1.378,1.453,3.057,2.584,4.79,3.638c0.355,1.346,0.323,2.896,1.141,4.144c1.722,0.646,3.628,0.667,5.425,1.184 c1.055,0.937,1.195,2.476,1.862,3.724c1.141,0.065,2.293,0.161,3.455,0.269c1.281,1.615,2.562,3.262,3.983,4.812 c-1.044-2.82-2.637-5.371-4.091-7.944c1.356-0.054,4.069-0.172,5.436-0.226c1.259,2.131,2.508,4.284,3.778,6.448 c0.754,0.021,2.25,0.065,3.003,0.086c0.075-0.937,0.215-2.831,0.291-3.768c4.478,0.538,7.546,3.961,10.635,6.889 c0.904-0.603,1.808-1.227,2.691-1.841c3.272-0.388,6.513-1.346,9.839-1.195c1.302,1.077,1.195,2.874,1.615,4.424 c-0.624,0.323-1.873,0.99-2.497,1.324c0.883,2.325,4.424,2.347,6.448,3.66c0.441-1.808,0.926-3.595,1.421-5.361 c1.066,0.032,2.131,0.097,3.229,0.183c1.895,2.078,4.037,3.918,6.276,5.651c-0.861-2.314-1.733-4.607-2.54-6.9 c3.143,0.829,6.373,0.667,9.581,0.463c0.764,0.861,1.496,1.808,2.174,2.809c1.518,0,3.046,0.022,4.596,0.075 c0.043,0.786,0.129,2.379,0.172,3.165c2.131-0.022,4.263-0.011,6.416,0.011c-0.452-1.432-0.893-2.863-1.313-4.252 c1.389-0.043,2.788-0.054,4.198-0.043c0.097,3.875,1.055,8.084,4.683,10.194c0.452-0.657,1.346-1.97,1.787-2.637 c-1.023-0.065-3.079-0.194-4.112-0.258c0.086-1.302,0.237-2.573,0.452-3.821c0.893-1.184,2.54-1.281,3.811-1.862 c0.054,1.529,0.118,3.089,0.183,4.672c2.444,0.258,4.909,0.581,7.363,0.926c-1.593-1.679-3.208-3.305-4.887-4.855 c-0.086-0.592-0.258-1.776-0.344-2.368c2.336,0.011,4.672,0.043,7.029,0.086c0.538,1.023,1.098,2.056,1.669,3.111 c0.807,0.043,2.422,0.129,3.229,0.172c-0.043,0.57-0.129,1.701-0.172,2.26c-0.969,0.915-1.905,1.873-2.799,2.874 c2.336,0.054,4.693,0.119,7.062,0.161c0.032,0.549,0.097,1.647,0.129,2.196c1.119-0.549,2.25-1.076,3.391-1.582 c0-1.421,0.011-2.81,0.043-4.188c1.41,0.334,3.089,0.151,4.349,1.055c0.754,1.249,0.754,2.788,1.141,4.23 c-0.775,0.161-2.325,0.484-3.1,0.657c1.658,1.076,3.326,2.142,5.016,3.229c0-0.894,0.021-2.691,0.032-3.585 c0.646,0.021,1.927,0.075,2.573,0.097c0.312,0.667,0.947,1.991,1.259,2.648c-0.065-1.97-0.075-3.886-0.054-5.813 c0.84-0.032,2.519-0.108,3.359-0.14c0.194,2.142,0.431,4.327,1.227,6.394c0.151-1.905,0.291-3.8,0.388-5.662 c2.465,0.904,4.909,1.916,7.352,2.96c0.075-1.044,0.226-3.111,0.301-4.145c1.292,0.528,2.691,0.958,3.843,1.841 c0.538,1.981-0.538,3.843-1.163,5.684c1.216,1.076,2.433,2.12,3.703,3.208c-0.463-2.497-0.99-4.973-1.453-7.438 c2.099,0.42,4.187,1.109,6.05,2.26c2.422-3.38,7.115-2.777,10.668-2.056c-2.594-1.259-4.101-3.563-3.983-6.469 c2.401,0.387,5.329-0.075,7.223,1.83c2.39,2.551,4.661,5.253,7.557,7.288c0.872,6.243,8.213,4.866,12.735,6.071 c0.484-0.291,1.464-0.85,1.959-1.141c1.098,0.302,2.207,0.635,3.337,0.99c-0.021-1.389-0.032-2.756-0.032-4.091 c1.227,0.032,2.476,0.097,3.724,0.183c0.581,0.592,1.184,1.216,1.798,1.862c1.647-1.432,3.703-1.884,5.824-2.013 c7.024,8.688,3.461,3.462,7.449,10.313c0.592-2.067,1.227-4.101,1.862-6.125c2.691,0.797,5.372,1.636,8.063,2.508 c0.054,0.689,0.151,2.088,0.205,2.777c1.991,0.484,3.983,0.99,5.996,1.518c-2.766-2.799-5.232-5.996-4.984-10.129 c4.629-0.183,8.655,2.185,12.799,3.886c0.043,1.216,0.108,2.465,0.183,3.746c-0.84,0.022-2.53,0.054-3.38,0.065 c-0.022,0.538-0.065,1.604-0.086,2.131c-1.41-0.065-2.799-0.097-4.177-0.118l-0.097,0.98c3.294,0.258,6.48,1.195,9.473,2.627 c0.291-0.689,0.883-2.078,1.184-2.766c-0.323-1.173-0.624-2.336-0.893-3.445c0.538-0.42,1.604-1.249,2.131-1.669 c-1.604-2.993-2.121-6.34-1.905-9.688c1.464-0.958,2.11-2.54,2.637-4.112c1.163,0.011,2.347,0.054,3.542,0.118 c0.936,1.475,1.862,2.993,2.788,4.532c0.248-0.581,0.732-1.733,0.969-2.314c1.658-0.463,3.305-0.99,5.027-1.259 c1.851,1.335,2.993,3.401,4.478,5.145c-0.032-2.153-0.021-4.241-0.011-6.34c2.304,0.161,4.618,0.377,6.943,0.646 c1.141-0.269,2.304-0.506,3.488-0.721c0.452,1.12,0.926,2.25,1.421,3.412c1.819,0.022,3.671,0.075,5.522,0.161 c1.808,2.401,4.424,3.531,7.417,3.488c0.527-3.057,0.915-6.125,1.206-9.182c3.778-0.011,6.469,2.476,8.472,5.436 c0.958-0.398,1.938-0.786,2.928-1.13c-0.42-1.378-0.829-2.766-1.195-4.091c2.885,0.118,7.018-1.055,7.503,3.047 c-0.226-1.443-0.431-2.906-0.603-4.295c1.636,0.129,3.283,0.291,4.941,0.474c1.539,2.11,3.154,4.198,4.79,6.265 c-1.227-2.401-2.131-4.963-2.605-7.589c1.69,0.301,3.391,0.657,5.102,1.044c0.441,0.915,0.904,1.851,1.378,2.82 c3.542-1.066,7.137-0.032,10.614,0.797c0.883,0.797,1.776,1.604,2.694,2.444c11.883,1.31,19.543,11.869,27.717,19.32 c20.041,18.268,10.726,17.09,3.563,23.469c-0.441,0.215-1.335,0.624-1.777,0.841c-9.862,8.732-21.684,15.898-32.312,23.669 c-67.731,49.525-111.917,98.377-216.231,168.288c-13.982,9.371-41.731,18.761-43.205,31.943 c-2.519,22.525,13.252,33.519,36.811,56.725c6.446,6.35,12.097,9.369,19.044,14.71c3.315,1.001,6.286,2.788,9.225,4.618 c9.252,5.761,58.295,11.387,92.724,112.948c8.735,25.766,13.629,52.842,26.78,76.631c5.179,9.368,4.032,19.798,4.459,30.48 c0.678,16.988-4.091,14.024-15.123,20.685c-61.029,36.853-56.09,71.39-185.667,395.346c-0.947,2.368-0.269,4.919,0.032,7.385 c-12.161-0.443-59.56-202.347-75.084-251.421c-6.216-19.65-16.684-41.115-18.815-61.731c1.367-1.83,2.745-3.639,4.144-5.415 c58.01-18.583,58.443-19.545,50.766-46.394c-16.288-56.965-8.397-30.823-3.833-56.937c20.36-116.504-0.579-134.22,1.831-167.689 c0.377-5.231-1.798-10.216-1.238-15.437c0,0-0.765-3.49-8.526-25.619c0.792-19.984-3.066-38.763-3.852-59.01 c-1.296-33.385,6.6-64.043-8.225-116.356c-1.475-7.223-4.618-14.317-4.015-21.809c-0.312-0.334-0.947-1.001-1.259-1.346 c0.71-4.726-1.12-9.204-1.282-13.856c-7.53-19.454,1.291-50.371-2.334-119.65c-0.364-6.95-2.897-13.353-2.899-20.297 c-12.115-41.065-15.044-93.88-26.919-96.71c-1.97-4.08-2.002-8.87-4.661-12.594c-1.647-2.594-2.745-5.469-3.778-8.321 c-0.538-0.194-1.636-0.592-2.185-0.786c-6.372-10.387-3.211-10.803-11.131-26.341c-1.733-4.542-6.448-6.695-9.301-10.409 c-26.975-17.63-54.373-21.392-81.269-3.178c-5.794,3.923-13.321,15.838-19.807,16.631c-1.297,0.159-12.288-34.202-13.439-37.411 c-6.297-17.559-11.57-33.037-39.914-43.174c-3.419-1.223-38.282-5.715-38.377-5.974c-2.033-5.487-5.771-11.563-10.497-15.118 c-2.038-1.533-16.246-4.05-16.503-5.174c-5.715-25.034-19.513-47.616-29.25-71.177c-14.821-35.862-28.46-72.211-42.234-108.479 c-1.399-0.075-2.799-0.129-4.177-0.162c-1.507-2.896-2.056-6.114-2.035-9.333c3.229-1.206,1.765-4.855,0.205-6.738 c-2.045-1.486-4.295-2.648-6.373-4.058c-0.065-2.358-0.14-4.683-0.226-7.008c0.474-0.409,1.421-1.227,1.895-1.625 c-0.312-1.335-0.614-2.67-0.904-3.962c-0.829-0.839-1.658-1.668-2.476-2.476c-1.109-0.248-2.207-0.463-3.294-0.668 c-1.604-3.746-2.196-7.944,0.603-11.303c-3.736-8.618-4.261-4.502-7.223-7.794c-1.12-2.379-1.302-5.038-1.604-7.589 c0.872-0.829,1.755-1.647,2.648-2.444c-1.098-3.014-2.325-6.265-6.071-6.286c-1.259-1.486-1.712-3.326-1.798-5.21 c-2.013-2.207-0.216-4.392,1.399-6.125c1.066-1.144-5.616-16.384-6.192-18.058c-46.671-135.545-57.315-211.357-92.43-343.991 c-22.318-84.302-48.459-168.251-64.476-253.853c-1.661-8.857-41.435-221.754-41.859-229.935c1.033-0.398,2.067-0.786,3.111-1.173 c5.333-12.207,1.259-10.236,1.378-16.674c-1.464-3.391-2.034-7.062-2.088-10.732c-4.055-8.486-0.182-9.121-3.262-12.465 c0.075-1.292,0.183-2.583,0.301-3.865c-2.476-2.842-5.221-5.953-4.726-10.011c-0.118-2.067-0.334-4.327,2.078-5.189 c-0.592-3.799-2.636-7.157-5.273-9.88c-1.788-1.847,1.012-11.399,0.418-14.442c-2.589-13.259-17.57-7.562-40.42-2.722 c-6.25,1.324-15.781,7.722-12.757,15.541c0.697,1.803,3.402,2.765,4.2,4.834c1.028,2.668,0.27,6.858,0.504,9.661 c-0.947,0.937-2.648,2.4-1.313,3.811c2.4,3.251,4.909,6.793,4.403,11.077c0.452,2.454-0.086,4.801-1.41,6.912 c2.425,3.807,2.574,12.365,3.47,16.803c1.701,8.426,2.973,16.752,6.217,24.683c2.368,0.915,4.715,1.895,7.04,2.917 c-0.118,1.001-0.237,2.013-0.344,3.025c1.264,1.756,18.176,96.486,18.724,99.943c37.641,237.43,113.769,444.918,154.673,657.118 c12.333,63.984,12.223,74.95,16.49,90.833c1.41,0.829,2.82,1.679,4.241,2.54c-0.205,1.249-0.409,2.519-0.592,3.811 c1.292,2.659-0.054,4.887-2.056,6.696c-0.258,4.101,3.402,6.082,5.522,8.988c0.065,1.292-0.108,2.573-0.215,3.897 c0.194,1.023,0.388,2.078,0.592,3.143c-2.637,1.507-2.357,4.672-2.874,7.266c2.013,1.249,4.026,2.541,6.05,3.8 c-0.322,6.84-0.395,4.66-0.022,8.353c-2.4,1.087-2.325,3.778-2.788,5.996c6.246,5.57,5.957,1.098,5.716,8.999 c0.42,2.078-0.183,4.037-1.281,5.824c-1.227,1.841,0.183,3.929,0.549,5.856c1.389,0.753,2.777,1.572,4.144,2.4 c0.065,2.487,0.14,4.984,0.215,7.492c-1.27,1.141-2.529,2.324-3.777,3.508c0.318-0.302,5.545,27.52,5.627,27.951 c7.207,37.445,10.192,43.929,4.867,43.409c-10.155,0.28-28.281,5.475-36.492,19.021c-2.002,3.423-2.131,7.557-3.897,11.098 c0.172,5.049,0.14,10.108,0.086,15.178c0,0-6.557,2.573-17.298,6.168c-13.611,4.556-41.337,4.284-32.009,49.975 c5.172,25.334,7.871,22.588,11.373,29.748c3.83,7.832,7.608,15.954,8.17,24.662c-35.499,20.109-40.351,40.715-42.079,42.574 c1.096,3.04,4.607,16.327,1.862,18.192c-11.829-1.848-5.791-5.405-41.574-2.002c-45.902,4.502-217.366,73.15-214.569,159.875 c1.884,4.769,2.508,9.925,4.435,14.683c1.548,4.001,12.322,22.809,13.499,26.621c0.431,0.323,1.313,0.958,1.744,1.282 c39.399,59.098,51.115,65.014,73.575,91.261c0.527,0.291,1.582,0.883,2.11,1.173c8.095,19.291-10.59,44.998-4.888,86.941 c1.159,8.527,6.348,18.021,4.36,26.336c-0.308,19.868-22.939,50.847-21.308,98.976c0.569,16.805,6.144,35.629,19.625,46.032 c17.831,13.759-13.458,26.31-7.959,69.22c4.605,35.933,29.283,43.287,28.846,62.753c-0.054,2.39,1.485,5.872,1.731,8.484 c1.015,10.776,0.605,38.696,26.27,76.367c10.904,16.006,0.829,7.812,23.643,23.826c13.202,9.267,24.224,18.425,31.771,32.845 c2.432,4.646,10.325,9.151,13.723,13.607c71.714,94.03,63.613,76.948,53.868,102.232c-1.461,8.384-12.095,28.259-13.146,37.906 c-0.155,1.422,9.342,81.584,9.469,82.662c3.167,27.066,5.325,59.538,19.469,83.593c2.107,7.329,10.299,23.352,11.906,34.931 c4.12,10.476,4.821,23.417,10.344,33.068c6.326,11.054,15.303,19.154,19.239,31.792c5.812,18.662,0.196,34.875,8.528,69.695 c36.048,150.649,30.376,112.629,18.78,165.369c-6.514,29.625-6.52,13.782-7.784,52.466c-1.751,53.587,2.936,137.487,2.936,137.487 c-2.122,67.594-20.273,117.444,7.905,183.578c1.362,18.708,13.252,30.343,16.954,46.783c1.453,6.451,17.408,36.869,20.324,48.753 c6.342,25.845,27.061,42.852,33.857,57.593c13.211,15.603,16.662,9.471,55.486,20.064c10.795,2.945,8.05,7.254,13.707,15.252 c22.846,32.104,13.72,132.761,2.185,171.49c-0.197,1.077-8.006,33.969-6.986,38.085c0.969,5.113-1.959,9.904-1.389,15.081 c0,0,2347.793,0,2354.737,0C2850.329,4000,2806.57,3369.813,2806.398,3368.735z M2174.727,782.531 c0.011,1.765,0.054,3.552,0.129,5.339c-0.743-0.086-2.239-0.269-2.982-0.366c-0.119-1.615-0.205-3.219-0.248-4.812 C2172.402,782.65,2173.952,782.575,2174.727,782.531z M2161.885,601.826c-0.043,1.302-0.054,2.616-0.032,3.94 c-0.764-0.011-2.282-0.032-3.046-0.043c-0.065-1.356-0.097-2.691-0.086-4.026C2159.506,601.73,2161.088,601.794,2161.885,601.826z M2147.858,518.842c0.021,0.786,0.043,2.357,0.064,3.143c-0.775-0.054-2.314-0.161-3.079-0.215 c-0.011-0.753-0.011-2.261-0.021-3.025C2145.587,518.778,2147.105,518.821,2147.858,518.842z M2133.681,390.916 c-0.032,1.324-0.021,2.659,0.011,3.994c-1.281-0.054-2.53-0.097-3.746-0.129c-0.097-1.389-0.162-2.777-0.215-4.155 C2131.023,390.722,2132.336,390.819,2133.681,390.916z M2104.413,359.709c0.84,0.872,1.722,1.744,2.626,2.616 c0.054-1.001,0.161-3.025,0.205-4.026c3.219,0.452,8.708-0.409,9.57,3.735c-0.678,2.4-2.131,4.5-2.864,6.879 c-1.507-0.022-2.971-0.022-4.413-0.032c-0.603-1.529-1.227-3.057-1.766-4.586c-0.764,0.829-1.496,1.658-2.196,2.486 c-0.613,0.054-1.841,0.151-2.454,0.205c-1.033-2.444-2.024-4.898-2.712-7.438C2101.711,359.591,2103.045,359.645,2104.413,359.709z M2087.577,357.621c-1.238,1.432-1.12,3.337-1.302,5.081c-0.635-0.075-1.916-0.248-2.551-0.323 c-0.765-0.764-1.496-1.528-2.207-2.282c-0.086-0.678-0.258-2.034-0.344-2.713c0.571-0.032,1.712-0.097,2.282-0.129 c-0.011-1.518,0-3.025,0.043-4.532C2086.436,352.551,2088.04,354.833,2087.577,357.621z M2088.427,340.882 c-0.635-0.011-1.895-0.032-2.53-0.043c-0.872-0.775-1.722-1.539-2.562-2.293c0.28-1.55-0.312-3.671,1.389-4.564 c1.647-0.259,3.348-0.248,5.07-0.312C2089.74,336.135,2089.439,338.6,2088.427,340.882z M2094.1,349.461 c-0.43,2.088,0.753,5.059-1.41,6.405c-0.721,0.14-2.153,0.409-2.874,0.549c0.387-2.045-0.775-4.995,1.367-6.297 C2091.915,349.957,2093.368,349.623,2094.1,349.461z M2087.835,318.438c3.886-0.345,7.029,2.928,7.589,6.61 c-3.036,0.118-5.382-1.808-7.6-3.552C2087.824,320.731,2087.824,319.202,2087.835,318.438z M2086.565,323.992 c0.42,1.41,0.796,2.82,1.227,4.252c-2.863,0.474-4.586-1.453-4.65-4.166C2084.003,324.057,2085.714,324.014,2086.565,323.992z M2074.842,307.146c1.507,2.185,2.659,4.607,4.08,6.879c-1.335-3.219-3.477-6.061-4.392-9.441c4.144-0.7,7.471,2.659,8.439,6.405 c0.495,3.068,0.097,6.179-0.032,9.268c-0.786,0.85-1.539,1.722-2.26,2.605c-6.125,0-3.229-8.881-7.998-10.399 C2073.012,310.483,2071.204,305.693,2074.842,307.146z M2071.15,300.289c0.667,1.991,1.152,4.047,1.475,6.147 c-1.776,0-3.509,0.022-5.221,0.043c-0.474-1.593-1.098-3.187-1.087-4.866C2067.447,300.084,2069.46,300.547,2071.15,300.289z M1581.555,10.829c0.043,0.743,0.14,2.239,0.194,2.993c-0.764-0.054-2.293-0.161-3.057-0.215c-0.065-0.711-0.194-2.131-0.248-2.842 C1579.219,10.776,1580.77,10.808,1581.555,10.829z M710.668,1378.631c-0.743,0.021-2.228,0.065-2.96,0.086 c-0.043-1.389-0.075-2.756-0.097-4.101c0.807-0.011,2.422-0.022,3.24-0.032C710.776,1375.907,710.711,1377.264,710.668,1378.631z M712.929,1352.925c-1.389-0.032-2.756-0.043-4.123-0.043c-0.021-1.378-0.032-2.734-0.043-4.069 c1.378-0.011,2.767-0.011,4.177,0.01C712.918,1350.169,712.918,1351.536,712.929,1352.925z M715.997,1286.12 c-1.335,0-2.648,0.011-3.961,0.043c-0.043-1.044-0.118-3.132-0.161-4.166c1.41,0.237,2.831,0.527,4.263,0.85 C716.105,1283.666,716.029,1285.302,715.997,1286.12z M719.549,1444.424v-3.154c0.775,0.011,2.304,0.043,3.079,0.064 c0.011,0.786,0.032,2.358,0.043,3.143C721.885,1444.467,720.324,1444.435,719.549,1444.424z M722.725,1279.64 c0.043-1.442,0.097-2.874,0.172-4.284c2.605-0.021,4.586,1.593,4.317,4.36C725.707,1279.672,724.21,1279.651,722.725,1279.64z M693.671,823.458c4.892-3.587,23.367-3.346,28.504,0.301c8.643,6.136,5.051,23.844,4.215,32.542 c-0.642,6.68,0.18,10.708-6.639,13.27c-6.898,2.592-16.078-1.062-22.023-4.459C682.609,856.47,691.961,824.712,693.671,823.458z M713.08,1001.913c-3.649-1.981-7.191-4.155-10.474-6.695c-18.062-13.975-12.158-67.627-12.966-78.642 c9.712-0.927,19.518-0.093,29.122,1.45c32.765,5.263,27.251,3.383,27.977,28.389c0.206,7.096,0.286,15.276-3.594,21.537 C738.614,975.263,717.879,1001.948,713.08,1001.913z M739.84,1504.749c-0.775,0-2.336-0.022-3.122-0.022 c0.011-1.41,0.043-2.799,0.075-4.177c0.764-0.011,2.304-0.043,3.079-0.054C739.851,1501.896,739.84,1503.317,739.84,1504.749z M748.151,1546.322c-1.938,0.549-3.843,1.152-5.759,1.722c-0.893-2.325-1.335-4.779-1.346-7.245 c1.281-1.206,2.53-2.433,3.746-3.692c1.561,0.194,3.542-0.28,4.564,1.313C749.905,1541.111,748.872,1543.749,748.151,1546.322z M760.185,1576.57c-0.452,0.388-1.346,1.152-1.798,1.539c0.528,1.669,0.818,3.402,1.066,5.167 c-0.829,0.021-2.487,0.064-3.316,0.086c-0.043-1.378-0.075-2.723-0.097-4.047c-0.506-0.43-1.529-1.302-2.034-1.733 c0.205-2.067-0.474-4.521,1.292-6.028c1.776-0.086,3.391,0.754,5.049,1.313C760.282,1574.072,760.229,1575.31,760.185,1576.57z M741.94,1682.418c0.054-0.818,0.161-2.454,0.215-3.272c0.764,0.011,2.282,0.043,3.046,0.065c0.032,0.775,0.086,2.325,0.108,3.1 C744.469,1682.343,742.779,1682.396,741.94,1682.418z M741.003,1707.166c0.7-3.91-2.049-5.185,3.929-6.76 c0.495,1.722,1.367,3.434,1.335,5.296C745.137,1707.596,742.811,1706.907,741.003,1707.166z M750.497,1724.077 c-1.001,1.249-2.691,1.216-4.101,1.604c-0.947-2.088-1.141-4.392-1.227-6.62c1.464-0.043,2.95-0.064,4.435-0.064 C750.304,1720.568,750.971,1722.29,750.497,1724.077z M750.702,1699.577c0.011-0.786,0.021-2.379,0.032-3.165 c0.775,0,2.336,0.011,3.122,0.011c0,0.775,0.011,2.314,0.021,3.079C753.081,1699.523,751.498,1699.566,750.702,1699.577z M762.295,1749.018c-1.356-0.022-2.691-0.011-4.015,0.021c0-2.465,0.032-4.898,0.086-7.32c1.755-0.054,3.531-0.075,5.307-0.065 C763.566,1744.153,763.2,1746.65,762.295,1749.018z M768.851,1777.082c-0.753-0.021-2.26-0.043-3.014-0.064 c0-0.786,0.011-2.368,0.011-3.165c0.753,0.032,2.26,0.097,3.014,0.129C768.862,1774.757,768.851,1776.307,768.851,1777.082z M791.489,1813.66c-0.764-0.021-2.282-0.054-3.046-0.065v-3.036c0.786-0.011,2.336-0.032,3.122-0.043 C791.543,1811.302,791.51,1812.874,791.489,1813.66z M824.084,1827.794c-0.075-1.841-0.129-3.649-0.172-5.436 c0.818,0.011,2.443,0.043,3.262,0.054c0.398,1.238,0.958,2.497,0.98,3.875C827.13,1827.525,825.537,1827.568,824.084,1827.794z M832.577,1834.059c-0.043-1.733-0.065-3.434-0.075-5.113c0.743,0,2.218-0.011,2.96-0.022c0.57,1.701,1.12,3.423,1.615,5.199 C835.57,1834.08,834.063,1834.059,832.577,1834.059z M865.743,1826.631c-0.721-0.032-2.174-0.108-2.896-0.14 c-0.065-0.764-0.194-2.304-0.258-3.068c0.797,0.011,2.379,0.032,3.175,0.043C865.764,1824.252,865.754,1825.845,865.743,1826.631z M965.724,92.005c0.011,1.485,0.032,2.982,0.065,4.467c-1.539,0.011-3.057,0.011-4.564,0 C962.592,94.868,964.099,93.372,965.724,92.005z M910.76,168.735c-2.794-1.296-0.439-10.178,0.743-13.111 C913.613,159.682,912.999,164.892,910.76,168.735z M912.989,163.59c0.344-3.186,0.592-6.384,0.829-9.581 c0.603-0.097,1.819-0.301,2.422-0.398c-0.118,2.831,0.398,5.619,1.593,8.202c1.916-0.807,2.928-2.648,3.972-4.338 c-0.807-0.151-2.422-0.463-3.219-0.624c0.054-2.853,0.14-5.695,0.226-8.547l-1.582-0.14c0.065,0.894,0.183,2.67,0.237,3.563 c-0.754-0.065-2.271-0.204-3.036-0.269c2.185-3.24,4.22-6.577,5.791-10.162c0.667-0.129,1.991-0.398,2.659-0.528 c0.011-0.839,0.054-2.519,0.065-3.369c-0.506,0.291-1.529,0.861-2.035,1.141c0.581-8.504,6.34-15.447,11.873-21.465 c2.67-3.316,6.825-4.747,10.216-7.169c0.097,2.82-1.324,5.544-4.047,6.513c0.086,1.991,0.237,3.972,0.452,5.964 c-5.641,5.931-5.921,14.381-8.353,21.755c-0.118,2.174,0.172,4.338,0.355,6.502c-1.658,7.869,1.615,15.619,0.99,23.553 c-0.291,0.614-0.861,1.83-1.152,2.444c0.904-0.043,2.702-0.129,3.606-0.172c-0.022,2.616-0.441,5.21-1.55,7.61 c-1.206-0.097-2.379-0.248-3.531-0.463c-1.195-1.367-2.11-3.122-4.112-3.358c1.69,4.263,3.197,8.687,3.488,13.305 c-0.85,2.239-3.638,3.176-4.726,5.372c-1.12-0.064-2.228-0.118-3.326-0.183c-1.163-3.854-1.701-7.88-3.208-11.637 c-1.076-3.617-3.1-7.352-2.013-11.217C917.521,171.501,912.903,167.971,912.989,163.59z M939.696,197.239 c0.118,2.444,0.172,4.877,0.215,7.331c-1.604-0.517-3.154-1.13-4.65-1.851c-0.269-3.531-2.487-6.502-2.756-10.043 c0.775-0.032,2.336-0.108,3.111-0.14c0.022,0.571,0.075,1.722,0.108,2.293l1.356,0.075c-0.032-1.518-0.043-3.046-0.043-4.564 c-1.496,0.538-3.014,1.012-4.51,1.432c0.474-1.69-0.118-4.026,1.507-5.199c1.453-0.527,3.079-0.226,4.629-0.334 c0.506,3.132,1.001,6.276,1.141,9.462c-0.893,0.065-2.702,0.205-3.595,0.269C937.08,196.292,938.824,196.917,939.696,197.239z M944.658,175.334c1.098,0.054,2.217,0.119,3.359,0.183c0.926,1.755,2.142,3.337,3.574,4.715c0,3.294-0.205,6.62-1.238,9.774 c-0.893,2.25-5.641,2.163-5.576-0.711c-0.269-2.519-0.248-5.049-0.28-7.568c-1.367,0.495-2.734,0.969-4.091,1.432 c-0.075-1.851-0.118-3.692-0.151-5.544c1.496,0.043,3.003,0.097,4.532,0.151C944.755,177.153,944.69,175.937,944.658,175.334z M948.802,160.317c0.775-0.011,2.314-0.032,3.089-0.043c-0.011,0.807-0.043,2.433-0.065,3.24c-0.7-0.054-2.11-0.162-2.81-0.204 C948.964,162.556,948.856,161.071,948.802,160.317z M925.626,216.282c-0.893,1.066-1.733,2.142-2.551,3.262 c-3.154-1.927-1.744-6.039-2.131-9.085c2.605-0.248,1.938-3.014,2.293-4.877c1.087-0.011,2.196-0.021,3.326-0.032 c8.404,11.074,9.087,10.968,13.283,14.069c0.474,2.358,1.001,4.715,1.443,7.094c-1.97,0.194-3.918,0.474-5.791,1.109 c-1.895-1.313-3.423-3.046-4.338-5.167c-0.603-0.011-1.808-0.043-2.411-0.054c-0.689-3.348-2.842-6.179-3.348-9.591 C925.465,213.828,925.572,215.464,925.626,216.282z M941.203,215.087c-1.249-0.14-2.476-0.28-3.692-0.409 c-3.595-3.423-4.93-8.558-8.902-11.615c-1.744-1.184-2.293-3.186-2.702-5.124c1.981,0.377,4.919-0.646,6.082,1.539 c2.002,3.348,5.953,4.823,7.966,8.16C941.504,209.791,940.987,212.59,941.203,215.087z M919.318,201.169 c-0.743-0.075-2.239-0.215-2.982-0.28c-0.151-2.131-0.237-4.273-0.248-6.405c1.076,0.861,2.174,1.744,3.262,2.626 c0.075,0.786,0.205,2.368,0.269,3.165c0.958-0.021,2.853-0.075,3.811-0.097c0.226,1.464,0.431,2.939,0.667,4.413 C921.654,204.721,920.05,203.408,919.318,201.169z M941.622,255.648c-0.086-0.689-0.258-2.078-0.344-2.767 c-9.506-0.641-9.432-6.445-13.574-10.291c-4.047-3.854-3.143-10.108-6.028-14.565c-0.829-2.766-1.539-5.565-1.819-8.439 c1.249,1.098,2.562,2.153,3.66,3.434c0.366,1.625,0.269,3.316,0.388,4.984c2.842,0.355,5.641,1.044,8.504,1.464 c3.886,4.521,6.437,10,10.302,14.532c0.355,2.25,0.71,4.607,2.433,6.287c0.065,1.292,0.129,2.583,0.205,3.886 c1.055,1.938,1.938,3.983,2.401,6.168C945.842,258.587,943.851,256.94,941.622,255.648z M946.843,215.249 c-0.032-2.174-0.054-4.338-0.075-6.513c1.367,0.075,2.756,0.151,4.166,0.226c0.388,1.636,0.764,3.262,1.173,4.909 C950.503,214.861,948.684,215.195,946.843,215.249z M972.851,107.151c0.915-2.368,1.948-4.693,3.175-6.911 c1.001,0.764,2.013,1.528,3.036,2.293c-0.237-1.55-0.441-3.089-0.689-4.629c20.537-15.104,10.686-7.598,32.94-18.203 c-1.001,2.218-2.723,3.983-4.284,5.802c0.753-0.043,2.25-0.129,3.003-0.172c-0.732,0.312-1.443,0.624-2.142,0.947 c-2.896-0.614-5.867-0.571-8.784-0.721c-1.604,1.098-3.176,2.218-4.683,3.413c-0.721-0.022-2.164-0.054-2.885-0.075 c0.054,0.624,0.172,1.862,0.237,2.487c-0.592-0.065-1.765-0.204-2.357-0.28c0,0.743-0.011,2.228-0.011,2.971 c-3.089,1.754-0.355,5.253-2.261,7.643c-2.336,3.778-4.037,7.901-5.167,12.196c-0.441-0.345-1.324-1.044-1.765-1.388 c-0.086-0.84-0.269-2.53-0.355-3.369c-1.292,1.238-2.562,2.487-3.8,3.768c0.99,0.065,2.982,0.183,3.972,0.248 c0.291,1.862-0.258,3.283-1.647,4.263c1.206,1.152,2.53,1.227,3.854,0.086c0.258,1.561,0.581,3.122,0.689,4.715 c-1.184,1.507-3.262,1.195-4.909,1.582c0.668-2.433-0.204-5.242-3.186-4.995c-0.065-0.56-0.215-1.69-0.291-2.26 c-1.464,2.368-3.24,4.521-5.372,6.308c0.603-3.832,1.841-7.514,2.939-11.227c1.378-1.324,2.734-2.67,4.091-4.037 C975.359,107.484,973.69,107.258,972.851,107.151z M1011.377,82.812c1.518-0.485,2.013,0.022,1.486,1.518 C1011.323,84.814,1010.828,84.308,1011.377,82.812z M989.471,130.402c0.355,3.229-1.076,6.179-2.411,9.01 c-2.637-0.237-4.736,0.753-5.554,3.369c-1.27,0.011-2.519,0.032-3.757,0.043c-0.366,1.733,0.56,4.241-1.378,5.253 c-1.335,0.215-2.648,0.377-3.972,0.495c0.226-6.383,3.477-12.099,4.984-18.224c0.474-0.517,1.421-1.55,1.895-2.067 c1.712-0.129,3.412-0.248,5.156-0.366l-0.043-3.229c1.324-0.366,2.648-0.721,4.004-1.066c0.054,1.324,0.129,2.659,0.205,3.994 c-0.646,0.226-1.948,0.678-2.605,0.904C987.21,129.035,988.362,129.66,989.471,130.402z M959.287,232.451 c0.764,0.064,2.304,0.194,3.079,0.258c0.721,0.764,1.464,1.539,2.207,2.314c0.065,0.668,0.183,1.992,0.248,2.659 c-1.27-0.118-2.53-0.248-3.778-0.355C960.428,235.701,959.836,234.087,959.287,232.451z M959.459,238.78 c-0.753-0.032-2.239-0.097-2.982-0.129c-0.043-0.775-0.108-2.304-0.14-3.068c0.7,0.108,2.099,0.301,2.81,0.398 C959.223,236.681,959.373,238.08,959.459,238.78z M964.551,241.45c1.701,1.69,3.445,3.466,3.94,5.931 c-1.453-0.065-2.885-0.129-4.295-0.194c-0.775-0.775-1.539-1.539-2.293-2.293c-0.086-1.313-0.161-2.616-0.226-3.918 C962.398,241.095,963.83,241.331,964.551,241.45z M963.711,226.035c-0.388-0.377-1.163-1.119-1.55-1.496 c-0.614-2.013-1.238-4.004-1.787-6.028c1.389,0.097,2.777,0.194,4.187,0.28c3.412,3.294,6.039,7.611,5.845,12.509 C966.467,234.28,963.862,229.533,963.711,226.035z M961.569,188.079c-3.606,0.592-2.96-3.897-3.154-6.168 c1.787-0.022,3.585-0.032,5.393-0.032C963.442,183.902,964.508,187.853,961.569,188.079z M967.113,214.205 c0.71,0.054,2.11,0.161,2.82,0.204c0.689,0.743,1.399,1.475,2.131,2.218c0.065,1.27,0.151,2.551,0.248,3.821 c-0.689-0.075-2.045-0.248-2.723-0.334c-0.711-0.721-1.421-1.442-2.11-2.153C967.35,216.713,967.221,215.453,967.113,214.205z M973.249,239.146c0.086,1.335,0.172,2.67,0.28,4.015c-1.335-0.129-2.659-0.248-3.972-0.366c-0.129-1.292-0.237-2.594-0.334-3.886 C970.547,238.985,971.893,239.071,973.249,239.146z M969.535,208.424c-0.086-0.635-0.269-1.916-0.355-2.562 c-1.862-1.712-3.897-3.219-6.254-4.144c-0.097-1.227-0.161-2.433-0.215-3.649c0.657-0.043,1.981-0.14,2.648-0.183 c0.764-0.334,2.304-1.001,3.068-1.335c0.603,2.562,1.335,5.092,2.088,7.621c2.013,0.646,3.983,1.475,5.91,2.4 c0,1.518,0.054,3.046,0.183,4.564c1.464,2.002,3.477,3.703,3.682,6.373c-1.895-0.226-3.746-0.56-5.511-1.205 c-0.032-1.303-0.043-2.605-0.054-3.908C972.765,211.384,971.107,209.942,969.535,208.424z M969.147,160.285 c0.764,0.065,2.293,0.204,3.057,0.269c0.032,1.346,0.075,2.691,0.14,4.048c-0.743-0.043-2.218-0.108-2.96-0.151 C969.287,163.062,969.212,161.673,969.147,160.285z M976.026,194.538c-1.098-3.391-1.442-6.932-1.259-10.474 c0.635,0.043,1.895,0.129,2.53,0.172c1.389,1.12,2.993,2.024,4.23,3.358c1.313,2.594,1.593,5.512,1.787,8.375 C980.827,195.754,978.373,195.356,976.026,194.538z M971.16,127.905c0.484-1.098,0.98-2.185,1.496-3.262 c3.272-0.452,4.392,2.4,4.026,5.178c-0.689,0.086-2.067,0.248-2.756,0.334c-0.721,2.809-3.412,4.015-5.759,2.088 c0.14-1.249,0.28-2.497,0.441-3.746C969.244,128.346,970.525,128.045,971.16,127.905z M969.923,145.257 c0.667,3.692,1.668,7.406,1.044,11.184c-0.969,1.313-1.895,2.659-2.745,4.037c-1.475-0.743-2.831-1.625-4.134-2.583 c-0.011-0.646-0.022-1.927-0.022-2.573c0.474-0.43,1.432-1.302,1.916-1.733c0.452-2.799,1.001-5.587,1.41-8.396 C968.028,145.204,969.298,145.236,969.923,145.257z M964.54,169.295c0.108,1.27,0.226,2.541,0.355,3.811 c-0.753,0.022-2.26,0.065-3.014,0.075c-0.054-0.721-0.161-2.174-0.215-2.906c-2.993,2.261,0.711,4.64,3.1,4.317 c-0.043,0.689-0.118,2.067-0.161,2.756c-1.895,0-3.789,0.011-5.662,0.011c-0.883-3.779-1.55-7.621-1.367-11.518 c1.206-0.011,2.422-0.022,3.66-0.032C962.312,166.98,963.421,168.143,964.54,169.295z M959.664,206.874 c-6.2-0.334-6.491-7.471-7.75-12.046c1.249,0,2.508,0.011,3.778,0.022C956.93,198.897,959.61,202.482,959.664,206.874z M956.984,213.333c1.733,1.992,2.734,4.564,1.636,7.137c-1.787,0.011-3.563,0.022-5.329,0.032c-0.614-2.034-1.13-4.112-1.507-6.19 C953.474,213.903,955.186,213.16,956.984,213.333z M955.229,238.866c-0.743-0.075-2.228-0.204-2.982-0.269 c-0.043-0.743-0.14-2.239-0.194-2.982c0.732,0.054,2.196,0.172,2.939,0.226C955.046,236.595,955.164,238.102,955.229,238.866z M951.795,254.83c2.992-0.258,4.65,1.863,4.715,4.683C953.485,259.889,951.773,257.661,951.795,254.83z M959.804,269.868 c-0.075-1.367-0.14-2.723-0.194-4.08c1.292,0.075,2.594,0.151,3.908,0.226c0.108,1.346,0.226,2.68,0.355,4.026 C962.495,269.976,961.139,269.922,959.804,269.868z M962.366,263.334c-2.067-3.681-6.459-6.222-6.233-10.926 c1.399,0.754,2.767,1.615,4.069,2.573c-0.754-1.109-1.356-2.271-1.798-3.52c1.755,0.484,3.531,1.076,5.285,1.669 c-0.065,1.389-0.108,2.777-0.129,4.177c1.173,1.948,2.142,4.026,2.734,6.254C964.971,263.485,963.658,263.41,962.366,263.334z M966.037,259.168c0-0.775,0.011-2.325,0.011-3.1c0.721,0.043,2.164,0.14,2.885,0.183c0.065,0.775,0.215,2.304,0.291,3.079 C968.426,259.287,966.833,259.211,966.037,259.168z M970.095,293.841c-0.732-0.075-2.185-0.216-2.906-0.28 c-0.032-0.743-0.108-2.239-0.14-2.982c0.678,0.032,2.034,0.097,2.713,0.129c0.969,2.949,5.038,1.787,6.76,4.284 c0.021,0.764,0.065,2.282,0.097,3.046c-1.625-0.065-3.219-0.129-4.801-0.194C971.225,296.5,970.644,295.165,970.095,293.841z M976.93,1849.097c-1.83,0.011-3.649,0.054-5.458,0.108c-0.043-1.496-0.086-2.96-0.097-4.403 C974.325,1844.328,977.35,1845.631,976.93,1849.097z M978.846,265.778c0.764,0.065,2.282,0.194,3.046,0.258 c0.043,0.732,0.151,2.207,0.194,2.949c-0.753-0.065-2.261-0.172-3.014-0.226C979.019,268.017,978.911,266.52,978.846,265.778z M979.987,1856.804c0-0.818-0.011-2.454-0.022-3.262c0.743,0.032,2.218,0.108,2.96,0.151c0.043,0.743,0.14,2.228,0.183,2.971 C982.323,1856.697,980.773,1856.761,979.987,1856.804z M982.28,209.651c-0.032-0.764-0.097-2.315-0.129-3.079 c1.367,0.032,2.756,0.086,4.166,0.129c0,0.743,0.022,2.239,0.032,2.993C984.982,209.673,983.615,209.662,982.28,209.651z M989.589,154.762c-0.743,0-2.228-0.011-2.982-0.022c-0.011-0.753-0.054-2.25-0.065-3.003c0.775-0.011,2.325-0.022,3.1-0.032 C989.633,152.47,989.6,153.998,989.589,154.762z M989.654,1848.375c0.7,0.022,2.099,0.054,2.81,0.075 c1.12,1.087,2.271,2.185,3.434,3.294c0.011,0.807,0.032,2.411,0.043,3.208C988.769,1852.562,990.574,1852.978,989.654,1848.375z M991.796,270.062c0.753,0.065,2.261,0.194,3.014,0.258c0.075,0.721,0.215,2.164,0.291,2.885c-0.786-0.032-2.358-0.118-3.143-0.151 C991.915,272.301,991.839,270.815,991.796,270.062z M1001.42,127.194c-0.947,2.218-1.313,4.596-1.389,6.997 c-1.518,0.463-3.025,0.926-4.521,1.367c-0.797-0.915-1.582-1.819-2.347-2.713c0.14-2.745,0.108-5.802,1.733-8.138 c2.551-1.475,5.242-2.842,7.126-5.21h2.594C1004.369,122.404,1005.338,126.538,1001.42,127.194z M1009.956,1848.074 c-0.743,0.021-2.239,0.064-2.982,0.086c-0.022-0.818-0.065-2.454-0.086-3.272c0.764,0.054,2.304,0.14,3.079,0.183 C1009.956,1845.824,1009.956,1847.321,1009.956,1848.074z M1017.147,120.983c-1.475,3.585-3.542,7.072-6.394,9.72 c-1.884,0.646-3.94,0.323-5.867,0.42c0.363-10.06,2.949-2.87,3.315-11.766c1.464,0.054,2.939,0.107,4.435,0.162 c-0.99-2.53-1.981-5.07-2.723-7.675c2.853-1.26,5.888-0.366,8.784,0.237c0,0.646,0.011,1.938,0.022,2.594 C1014.413,114.664,1018.395,118.669,1017.147,120.983z M1019.633,100.197c1.442-0.043,2.907-0.086,4.371-0.118 c-0.054,1.442-0.108,2.874-0.151,4.316C1021.302,104.438,1019.407,102.834,1019.633,100.197z M1022.195,117.302 c-0.011-2.433,0-4.855,0-7.277c2.411-0.657,4.866-1.217,7.384-1.486C1029.827,112.813,1027.029,117.808,1022.195,117.302z M1027.567,1851.239c-0.032-0.743-0.075-2.239-0.097-2.982c0.743-0.011,2.239-0.054,2.982-0.064 c0.021,0.797,0.054,2.401,0.075,3.208C1029.784,1851.357,1028.299,1851.282,1027.567,1851.239z M1032.508,130.047 c-1.658-0.022-3.305-0.054-4.93-0.086c-0.032-0.786-0.108-2.357-0.151-3.143c1.755-0.883,3.649-1.066,5.339,0.14 C1032.702,127.733,1032.572,129.272,1032.508,130.047z M1034.349,105.74c-1.152,0.883-2.013,2.788-3.682,2.497 c-2.239,0.291-2.228-2.497-2.271-3.972c1.077-2.013,3.025-3.305,5.339-3.423c0.043-0.711,0.129-2.142,0.172-2.853 c0.71,0.032,2.131,0.097,2.842,0.118c0.043,0.614,0.118,1.83,0.151,2.444C1034.155,100.907,1034.887,103.781,1034.349,105.74z M1036.103,112.834c0-0.764-0.011-2.282-0.011-3.036h2.971c0.022,0.786,0.054,2.358,0.075,3.133 C1038.375,112.91,1036.857,112.856,1036.103,112.834z M1038.202,116.225c0.754,0.011,2.25,0.043,3.003,0.054 c-0.032,1.302-0.054,2.605-0.054,3.908c-0.753,0.032-2.25,0.097-2.992,0.129C1038.159,118.949,1038.17,117.593,1038.202,116.225z M1039.29,135.515c0-1.798,0.021-3.585,0.054-5.372c1.625,0.323,3.757-0.215,4.887,1.367c0.119,1.227,0.215,2.465,0.269,3.714 C1042.745,135.322,1041.012,135.418,1039.29,135.515z M1045.716,98.808c0-1.421,0.011-2.831,0.032-4.23 c1.292,0.086,2.594,0.172,3.918,0.269c0.075,1.281,0.161,2.562,0.28,3.854C1048.515,98.733,1047.105,98.765,1045.716,98.808z M1048.859,76.213c-0.958,2.39-1.324,4.919-1.313,7.481c-3.574-0.441-8.902,1.378-10.14-3.337 c-0.269,3.143-3.133,3.757-5.748,3.649c-0.85,2.304-1.69,4.607-2.53,6.911c-2.358,0.624-4.726,1.205-7.126,1.636 c0.011-0.71,0.011-2.12,0.011-2.82c1.485-0.172,2.799-0.732,3.94-1.669c-1.744-0.032-3.488-0.043-5.21-0.011 c0.032,1.432,0.075,2.874,0.129,4.317c-1.755,0-3.509-0.075-5.232,0.075c-0.7,0.947-1.335,1.927-1.905,2.939 c-2.519,0.915-5.092,1.625-7.589,2.519c-4.932,7.526-8.65,4.433-10.775,8.967c-3.552,2.239-7.535,4.284-9.839,7.933 c-0.269-0.022-0.807-0.054-1.066-0.075c0.57-2.433,1.087-4.887,2.002-7.212c2.045-1.561,5.07-1.701,6.609-3.983 c1.27-2.185,4.478-3.122,4.37-5.974c-2.401,0.71-4.683,1.765-7.083,2.444c0.032,0.495,0.108,1.496,0.14,1.991l-1.066-0.086 c0.366-1.023,0.743-2.034,1.13-3.057c9.505-6.187-0.269-2.58,28.063-15.469c1.109,1.109,2.411,2.034,3.983,2.4 c-0.84-0.883-1.281-1.916-1.335-3.1c5.74-1.639,1.032,0.282,7.772-2.39c1.464-1.981,3.52-2.723,5.899-1.808 c5.501-1.518,10.732-3.907,16.405-4.844c0.226,0.646,0.678,1.938,0.904,2.594C1051.41,76.224,1049.71,76.224,1048.859,76.213z M1054.931,69.313c-7.418,3.789-26.765,7.239-28.483,8.117c-0.054-0.872-0.151-2.626-0.205-3.498 c-1.453-0.097-2.906-0.183-4.327-0.269c9.53-4.528,17.018,0.385,34.457-7.761C1055.878,67.031,1055.393,68.172,1054.931,69.313z M1066.901,56.633c-1.744,0.054-3.477,0.108-5.189,0.162c-0.065,0.775-0.183,2.325-0.237,3.1 c-7.141,6.266-19.502,8.871-29.258,8.579c-0.258-0.506-0.786-1.528-1.044-2.045c-3.455,0.571-6.706,1.862-9.968,3.036 c0.506,0.323,1.507,0.979,2.013,1.313c-17.268,10.295-21.025,8.066-43.403,22.886c-2.745,1.862-4.424,4.93-7.169,6.76 c-2.95,0.689-5.867,1.496-8.504,3.014c-2.336,4.984-7.018,9.43-5.759,15.426c3.197-4.715,9.311-8.224,9.021-14.586 c1.292,0.065,2.605,0.129,3.929,0.204c-1.776,7.492-4.381,14.812-5.146,22.509c-0.753,5.242-4.629,11.637-10.743,10.56 c-1.367-3.66-0.99-7.589-1.27-11.4c-1.163-1.012-2.282-2.056-3.369-3.1c-1.55,1.27-2.25,3.046-2.551,4.984 c-0.657,0.936-1.001,2.024-1.216,3.132c1.432-1.12,2.541-2.562,3.315-4.22c0.84,0,2.519-0.011,3.369-0.022 c-0.097,4.532,0.624,9.096,0.108,13.606c-1.012,1.722-3.186,1.163-4.812,1.486c-0.775-2.842-1.421-5.705-1.948-8.59 c0.086,1.701,0.205,3.412,0.14,5.113c-0.667,0.097-1.992,0.28-2.659,0.377c0-1.873,0.022-3.757,0.054-5.63 c-0.581-0.011-1.733-0.043-2.314-0.054c-0.065,1.292-0.108,2.584-0.14,3.886c-1.098,0.571-2.153,1.205-3.176,1.873 c0.258,2.379,1.862,4.37,2.788,6.534c1.636-1.464,1.873-3.606,1.948-5.684c0.732,0,2.196,0.011,2.928,0.011 c-0.355,3.165-0.98,6.287-1.529,9.43c-1.173,0.947-2.185,2.465-3.886,2.325c-0.98-0.732-1.443-1.895-2.11-2.863 c1.453,2.842,2.444,6.06,1.238,9.204c6.343,1.457,0.547,9.966-1.647,14.102c-4.898-0.334-4.101-6.071-4.704-9.591 c-1.227-6.039-1.335-12.272-0.775-18.397c0.248-1.475,1.905-1.959,2.874-2.906c-1.258-4.054-2.865-1.32,7.987-22.39 c2.034-3.983-0.517-9.096,2.368-12.681c-0.258,1.938-0.7,3.843-1.184,5.738c1.496,0.301,3.025,0.646,4.564,0.872 c0.689-1.443,0-3.434,1.259-4.607c2.293-0.915,4.736-1.421,7.18-1.884c1.044-1.776,2.035-3.595,3.316-5.232 c3.272-3.014,8.848-2.465,11.109-6.771c0.603-0.162,1.819-0.474,2.433-0.635c0-0.119,0.011-0.345,0.011-0.452 c-3.046,0.269-6.233,0.754-9.096-0.603c5.21-3.703,8.504-9.451,14.037-12.853c0.42,0.205,1.27,0.603,1.701,0.807 c3.96-6.726,0.14-1.531,15.189-12.971c4.801-3.918,11.174-4.855,17.019-6.351c0.366,0.7,1.087,2.089,1.442,2.788 c0.786-1.496,3.003-2.917,2.293-4.779c-1.851-0.248-3.714-0.323-5.554-0.442c4.51-1.981,8.784-5.791,14.037-4.973 c5.96,0.412,28.502-6.513,39.474-15.835c1.755,0.258,4.177-0.732,5.339,1.076c0.689,3.455-1.119,6.803-0.979,10.28 c-0.947,0.054-2.853,0.161-3.8,0.215c0.108-0.797,0.334-2.368,0.441-3.165c-1.206,2.648-2.734,5.113-4.295,7.546 c1.496-0.022,3.014-0.043,4.554-0.043C1066.933,54.512,1066.911,55.922,1066.901,56.633z M1071.379,72.112 c0.334,2.454-2.25,3.197-4.134,3.38c-0.011-2.218,0.021-4.424,0.097-6.631C1069.323,68.71,1072.143,69.507,1071.379,72.112z M1072.681,1851.336c-0.043-1.873-0.075-3.714-0.086-5.522c3.909,1.125,4.519-1.396,5.436,5.425 C1076.234,1851.25,1074.447,1851.282,1072.681,1851.336z M1119.098,32.348c-1.266,3.622-1.639,5.063-2.691,8.149 c-1.722-1.895-3.821-3.219-5.985-4.51c-0.011-0.969-0.011-2.885-0.021-3.854C1113.285,32.219,1116.192,32.272,1119.098,32.348z M1091.939,42.036c1.313-0.043,2.637-0.075,3.972-0.118c0.323,2.486,0.807,4.941,1.421,7.374c-0.581,0.011-1.765,0.022-2.347,0.032 c-0.022,0.797-0.065,2.379-0.075,3.175c-1.281-0.011-2.54-0.011-3.778-0.011c-0.054-0.657-0.172-1.981-0.226-2.638 C1095.298,49.56,1092.144,44.651,1091.939,42.036z M1114.276,42.692c-0.818,2.336-1.346,4.747-1.313,7.234 c-1.356,1.991-2.508,4.274-4.801,5.328c-0.118,0.592-0.377,1.776-0.506,2.368c-0.398,0.42-1.173,1.249-1.572,1.658 c-1.593,3.208-5.016,4.812-7.815,6.76c-0.011,1.54,0,3.079,0.032,4.629c-0.818,0.032-2.433,0.086-3.251,0.119 c-0.032,0.915-0.097,2.745-0.129,3.66c-1.69-0.7-3.337-1.443-4.984-2.185c0.958,0.624,1.927,1.249,2.917,1.873 c-0.151,0.807-0.452,2.422-0.603,3.229c-1.356,1.313-3.574,0.743-5.275,1.152c-0.215-1.766-0.237-3.768-2.465-3.918 c-0.28-3.768-0.161-8.407,3.563-10.528c3.649-1.851,3.929-6.416,5.285-9.839c0.441-0.107,1.303-0.323,1.733-0.431 c0.571-2.745,2.864-4.241,5.135-5.565c0.463-1.507,0.98-3.003,1.529-4.478c-0.56-0.011-1.669-0.011-2.228-0.022 c-0.021-1.324-0.032-2.637-0.021-3.961c0.764,0.022,2.271,0.043,3.025,0.054c0.032,0.937,0.097,2.799,0.129,3.736 c1.69-0.603,2.583-2.131,3.552-3.531c1.13-0.129,2.271-0.248,3.434-0.377C1111.423,35.071,1114.738,40.098,1114.276,42.692z M1114.48,73.21c0.075-2.745,0.506-5.468,1.615-7.998c2.261-2.54,4.145-6.039,8.17-5.049 C1123.856,65.675,1121.251,73.63,1114.48,73.21z M1126.515,38.817c-0.463,1.572-0.054,3.649-1.539,4.737 c-1.615,0.323-3.24,0.398-4.844,0.56c-1.45-4.083-2.45-13.443,8.267-11.238c-2.659-0.334-4.317-2.347-4.047-5.027 c1.615,0.043,3.251,0.086,4.898,0.151c0.937,1.388,1.862,2.842,3.326,3.768c0.011,1.507,0.011,3.025,0.054,4.532 C1130.961,37.935,1128.819,38.731,1126.515,38.817z M1186.721,10.184c-8.666,1.388-6.356,2.592-12.616-1.927 c-0.043-0.721-0.14-2.174-0.183-2.896c2.271,0,4.564,0.022,6.857,0.065c0.344,0.614,1.023,1.83,1.356,2.444 c0.118-0.71,0.355-2.142,0.474-2.853C1185.58,5.135,1187.077,7.32,1186.721,10.184z M1215.839,19.118 c-0.043-1.367-0.065-2.724-0.075-4.091c0.743,0.032,2.228,0.075,2.96,0.097c0.065,1.346,0.14,2.702,0.237,4.047 C1218.175,19.161,1216.615,19.129,1215.839,19.118z M1220.425,20.001c-0.269-1.378-0.441-2.777-0.527-4.177 c1.744,0.506,3.499,1.076,5.253,1.679c0.022,1.302,0.043,2.616,0.097,3.929C1223.622,21.045,1221.448,21.637,1220.425,20.001z M1891.823,136.463c-0.021-0.743-0.064-2.228-0.075-2.971c0.754,0.011,2.261,0.032,3.025,0.043 c0.022,0.764,0.065,2.315,0.086,3.079C1894.094,136.581,1892.576,136.495,1891.823,136.463z M1902.717,179.435 c-0.108-1.367-0.183-2.734-0.237-4.101c0.764,0.022,2.304,0.086,3.079,0.119c-0.011,1.346,0.022,2.713,0.065,4.069 C1904.902,179.499,1903.438,179.457,1902.717,179.435z M1932.868,103.351c-2.874,0.032-5.199-1.572-4.661-4.683 C1930.963,98.701,1933.18,100.369,1932.868,103.351z M1980.211,174.063c-0.108-1.443-0.172-2.874-0.204-4.306 c2.691-0.14,4.521,1.668,4.51,4.37C1983.053,174.107,1981.621,174.085,1980.211,174.063z M2005.228,219.178 c-0.301-1.658-0.388-3.348-0.495-5.005h3.961c0.484,2.11,1.044,4.22,1.561,6.329 C2008.576,220.104,2006.196,220.986,2005.228,219.178z M2060.859,1286.163c-0.032-0.753-0.108-2.271-0.14-3.025 c0.797,0.021,2.379,0.076,3.176,0.097c0,0.765,0.011,2.271,0.011,3.025C2063.141,1286.238,2061.623,1286.195,2060.859,1286.163z M2063.582,328.557c0.14,1.281,0.259,2.562,0.345,3.854c-0.732-0.011-2.196-0.043-2.928-0.064c-0.571-1.755-1.087-3.51-1.507-5.286 C2060.891,327.308,2062.872,326.856,2063.582,328.557z M2057.124,239.028c0.097,1.744,0.216,3.488,0.366,5.253 c-0.732-0.065-2.218-0.183-2.949-0.237c-0.474-1.679-0.904-3.359-1.302-5.038C2054.508,239.006,2055.8,239.006,2057.124,239.028z M2060.816,283.927c-1.744,0.032-3.445,0.064-5.124,0.107c-1.012-2.433-1.97-4.898-2.605-7.449 C2057.136,277.338,2059.344,274.488,2060.816,283.927z M2058.275,310.267c0.312,3.369-0.452,6.749-1.324,9.979 c-0.549,2.024-3.035,1.141-4.51,1.507c-1.927-4.091-1.152-8.687-0.129-12.907C2054.282,309.17,2057.167,307.975,2058.275,310.267z M2047.769,237.908c1.324,0.054,2.68,0.118,4.058,0.183c0.075,1.776,0.161,3.552,0.28,5.328 C2048.674,243.743,2047.608,240.772,2047.769,237.908z M2049.007,260.438c0.7,0.032,2.11,0.086,2.809,0.118 c0.086,2.067,0.194,4.123,0.345,6.19c-0.581,0.022-1.755,0.065-2.336,0.086c-0.043,1.787-0.065,3.585-0.043,5.382 c-0.743-0.011-2.217-0.032-2.949-0.043c0.011-0.753,0.054-2.271,0.075-3.025c-0.495-0.398-1.464-1.184-1.959-1.583 c-0.172-1.302-0.312-2.605-0.431-3.897c0.764,0.022,2.271,0.054,3.036,0.075C2048.006,262.634,2048.49,261.536,2049.007,260.438z M2042.581,194.462c1.324,0.829,2.777,1.572,3.864,2.777c0.452,1.852-0.71,3.595-1.087,5.35c-5.727-1.356-8.472-8.041-8.375-13.445 C2040.202,189.188,2041.44,191.922,2042.581,194.462z"/> </g> </svg>